<?xml version="1.0" encoding="utf-8" ?>
<svg baseProfile="full" height="1600" version="1.1" width="1600" xmlns="http://www.w3.org/2000/svg" xmlns:ev="http://www.w3.org/2001/xml-events" xmlns:xlink="http://www.w3.org/1999/xlink"><defs /><polyline fill="none" points="779,11 778,12 750,12 749,13 736,13 735,14 727,14 726,15 714,15 713,16 706,16 705,17 697,17 696,18 690,18 689,19 683,19 682,20 677,20 676,21 670,21 669,22 665,22 664,23 661,23 660,24 654,24 653,25 648,25 647,26 644,26 643,27 639,27 638,28 634,28 633,29 629,29 628,30 625,30 624,31 620,31 619,32 617,32 616,33 612,33 611,34 608,34 607,35 604,35 603,36 601,36 600,37 596,37 595,38 593,38 592,39 589,39 588,40 586,40 585,41 582,41 581,42 578,42 577,43 575,43 574,44 572,44 571,45 569,45 568,46 566,46 565,47 562,47 561,48 559,48 558,49 556,49 555,50 553,50 552,51 550,51 549,52 547,52 546,53 544,53 543,54 541,54 540,55 538,55 537,56 535,56 534,57 532,57 531,58 530,58 529,59 527,59 526,60 525,60 524,61 522,61 521,62 519,62 518,63 517,63 516,64 514,64 513,65 511,65 510,66 509,66 508,67 506,67 505,68 504,68 503,69 501,69 500,70 499,70 498,71 497,71 496,72 494,72 493,73 492,73 491,74 490,74 489,75 487,75 486,76 485,76 484,77 483,77 482,78 480,78 479,79 478,79 477,80 476,80 475,81 474,81 473,82 472,82 471,83 469,83 468,84 467,84 466,85 465,85 464,86 463,86 462,87 461,87 460,88 459,88 458,89 457,89 456,90 455,90 454,91 452,91 451,92 450,92 449,93 448,93 447,94 446,94 445,95 444,95 443,96 442,96 440,98 439,98 438,99 437,99 436,100 435,100 434,101 433,101 432,102 431,102 430,103 429,103 428,104 427,104 426,105 425,105 423,107 422,107 421,108 420,108 419,109 418,109 417,110 416,110 414,112 413,112 412,113 411,113 410,114 409,114 408,115 407,115 405,117 404,117 403,118 402,118 400,120 399,120 398,121 397,121 395,123 394,123 393,124 392,124 391,125 390,125 388,127 387,127 385,129 384,129 382,131 381,131 380,132 379,132 377,134 376,134 375,135 374,135 373,136 372,136 370,138 369,138 366,141 365,141 364,142 363,142 360,145 359,145 358,146 357,146 354,149 353,149 351,151 350,151 347,154 346,154 345,155 344,155 342,157 341,157 337,161 336,161 332,165 331,165 330,166 329,166 327,168 326,168 322,172 321,172 317,176 316,176 314,178 313,178 310,181 309,181 304,186 303,186 298,191 297,191 292,196 291,196 285,202 284,202 278,208 277,208 267,218 266,218 260,224 259,224 251,232 251,233 246,238 245,238 222,261 222,262 213,271 213,272 204,281 204,282 198,288 198,289 192,295 192,296 188,300 188,301 183,306 183,307 180,310 180,311 176,315 176,316 172,320 172,321 169,324 169,325 167,327 167,328 163,332 163,333 160,336 160,337 158,339 158,340 157,341 157,342 153,346 153,347 151,349 151,350 149,352 149,353 146,356 146,357 144,359 144,360 143,361 143,362 140,365 140,366 138,368 138,369 136,371 136,372 135,373 135,374 133,376 133,377 131,379 131,380 130,381 130,382 128,384 128,385 126,387 126,388 125,389 125,390 124,391 124,392 122,394 122,395 120,397 120,398 119,399 119,400 117,402 117,403 116,404 116,405 115,406 115,407 114,408 114,409 112,411 112,412 111,413 111,414 110,415 110,416 108,418 108,419 107,420 107,421 106,422 106,423 104,425 104,426 103,427 103,428 102,429 102,430 101,431 101,432 100,433 100,434 99,435 99,436 98,437 98,438 97,439 97,440 96,441 96,442 95,443 95,444 94,445 94,446 93,447 93,448 92,449 92,450 91,451 91,452 90,453 90,454 89,455 89,456 88,457 88,458 87,459 87,460 86,461 86,462 85,463 85,464 84,465 84,466 83,467 83,468 82,469 82,471 81,472 81,473 80,474 80,475 79,476 79,477 78,478 78,480 77,481 77,482 76,483 76,484 75,485 75,486 74,487 74,488 73,489 73,491 72,492 72,493 71,494 71,495 70,496 70,498 69,499 69,500 68,501 68,503 67,504 67,505 66,506 66,507 65,508 65,510 64,511 64,513 63,514 63,515 62,516 62,518 61,519 61,521 60,522 60,523 59,524 59,526 58,527 58,528 57,529 57,531 56,532 56,534 55,535 55,537 54,538 54,540 53,541 53,543 52,544 52,546 51,547 51,549 50,550 50,551 49,552 49,555 48,556 48,557 47,558 47,560 46,561 46,564 45,565 45,567 44,568 44,570 43,571 43,574 42,575 42,577 41,578 41,580 40,581 40,584 39,585 39,588 38,589 38,591 37,592 37,594 36,595 36,598 35,599 35,602 34,603 34,606 33,607 33,610 32,611 32,613 31,614 31,618 30,619 30,623 29,624 29,627 28,628 28,631 27,632 27,636 26,637 26,641 25,642 25,646 24,647 24,650 23,651 23,657 22,658 22,662 21,663 21,667 20,668 20,673 19,674 19,680 18,681 18,687 17,688 17,693 16,694 16,699 15,700 15,708 14,709 14,717 13,718 13,727 12,728 12,740 11,741 11,752 10,753 10,773 9,774 9,833 10,834 10,851 11,852 11,865 12,866 12,878 13,879 13,888 14,889 14,897 15,898 15,904 16,905 16,913 17,914 17,918 18,919 18,925 19,926 19,931 20,932 20,936 21,937 21,941 22,942 22,949 23,950 23,955 24,956 24,959 25,960 25,964 26,965 26,969 27,970 27,973 28,974 28,978 29,979 29,982 30,983 30,987 31,988 31,991 32,992 32,995 33,996 33,999 34,1000 34,1003 35,1004 35,1006 36,1007 36,1010 37,1011 37,1014 38,1015 38,1017 39,1018 39,1021 40,1022 40,1025 41,1026 41,1028 42,1029 42,1031 43,1032 43,1034 44,1035 44,1038 45,1039 45,1041 46,1042 46,1044 47,1045 47,1047 48,1048 48,1050 49,1051 49,1053 50,1054 50,1056 51,1057 51,1059 52,1060 52,1062 53,1063 53,1065 54,1066 54,1068 55,1069 55,1071 56,1072 56,1073 57,1074 57,1076 58,1077 58,1078 59,1079 59,1081 60,1082 60,1084 61,1085 61,1086 62,1087 62,1089 63,1090 63,1092 64,1093 64,1094 65,1095 65,1097 66,1098 66,1099 67,1100 67,1102 68,1103 68,1104 69,1105 69,1107 70,1108 70,1109 71,1110 71,1111 72,1112 72,1113 73,1114 73,1116 74,1117 74,1118 75,1119 75,1120 76,1121 76,1123 77,1124 77,1125 78,1126 78,1127 79,1128 79,1129 80,1130 80,1131 81,1132 81,1133 82,1134 82,1136 83,1137 83,1138 84,1139 84,1140 85,1141 85,1142 86,1143 86,1145 87,1146 87,1147 88,1148 88,1149 89,1150 89,1151 91,1153 91,1154 92,1155 92,1157 93,1158 93,1159 95,1161 95,1162 96,1163 96,1164 97,1165 97,1166 98,1167 98,1168 99,1169 99,1170 100,1171 100,1172 101,1173 101,1174 102,1175 102,1176 103,1177 103,1178 104,1179 104,1180 106,1182 106,1183 107,1184 107,1185 108,1186 108,1187 109,1188 109,1189 111,1191 111,1192 112,1193 112,1194 113,1195 113,1196 114,1197 114,1198 116,1200 116,1201 117,1202 117,1203 119,1205 119,1206 120,1207 120,1208 122,1210 122,1211 123,1212 123,1213 124,1214 124,1215 126,1217 126,1218 127,1219 127,1220 129,1222 129,1223 131,1225 131,1226 133,1228 133,1229 134,1230 134,1231 136,1233 136,1234 138,1236 138,1237 140,1239 140,1240 142,1242 142,1243 144,1245 144,1246 146,1248 146,1249 148,1251 148,1252 150,1254 150,1255 152,1257 152,1258 155,1261 155,1262 157,1264 157,1265 161,1269 161,1270 163,1272 163,1273 166,1276 166,1277 169,1280 169,1281 172,1284 172,1285 176,1289 176,1290 179,1293 179,1294 183,1298 183,1299 187,1303 187,1304 192,1309 192,1310 199,1317 199,1318 204,1323 204,1324 213,1333 213,1334 222,1343 222,1344 258,1380 259,1380 271,1392 272,1392 280,1400 281,1400 287,1406 288,1406 293,1411 294,1411 299,1416 300,1416 304,1420 305,1420 309,1424 310,1424 314,1428 315,1428 318,1431 319,1431 322,1434 323,1434 326,1437 327,1437 330,1440 331,1440 334,1443 335,1443 338,1446 339,1446 341,1448 342,1448 344,1450 345,1450 348,1453 349,1453 351,1455 352,1455 354,1457 355,1457 357,1459 358,1459 360,1461 361,1461 363,1463 364,1463 366,1465 367,1465 369,1467 370,1467 371,1468 372,1468 374,1470 375,1470 377,1472 378,1472 380,1474 381,1474 382,1475 383,1475 385,1477 386,1477 387,1478 388,1478 390,1480 391,1480 393,1482 394,1482 395,1483 396,1483 398,1485 399,1485 400,1486 401,1486 402,1487 403,1487 405,1489 406,1489 407,1490 408,1490 409,1491 410,1491 412,1493 413,1493 414,1494 415,1494 416,1495 417,1495 418,1496 419,1496 421,1498 422,1498 423,1499 424,1499 425,1500 426,1500 427,1501 428,1501 429,1502 430,1502 431,1503 432,1503 433,1504 434,1504 435,1505 436,1505 437,1506 438,1506 439,1507 440,1507 442,1509 443,1509 444,1510 446,1510 447,1511 448,1511 449,1512 450,1512 451,1513 452,1513 453,1514 454,1514 455,1515 456,1515 457,1516 458,1516 459,1517 460,1517 461,1518 462,1518 463,1519 464,1519 465,1520 467,1520 468,1521 469,1521 470,1522 471,1522 472,1523 473,1523 474,1524 475,1524 476,1525 477,1525 478,1526 480,1526 481,1527 482,1527 483,1528 484,1528 485,1529 487,1529 488,1530 489,1530 490,1531 491,1531 492,1532 494,1532 495,1533 496,1533 497,1534 499,1534 500,1535 501,1535 502,1536 504,1536 505,1537 506,1537 507,1538 509,1538 510,1539 511,1539 512,1540 514,1540 515,1541 516,1541 517,1542 519,1542 520,1543 522,1543 523,1544 525,1544 526,1545 528,1545 529,1546 530,1546 531,1547 533,1547 534,1548 536,1548 537,1549 538,1549 539,1550 541,1550 542,1551 544,1551 545,1552 547,1552 548,1553 550,1553 551,1554 553,1554 554,1555 556,1555 557,1556 559,1556 560,1557 562,1557 563,1558 565,1558 566,1559 569,1559 570,1560 573,1560 574,1561 576,1561 577,1562 580,1562 581,1563 583,1563 584,1564 586,1564 587,1565 590,1565 591,1566 594,1566 595,1567 598,1567 599,1568 602,1568 603,1569 605,1569 606,1570 609,1570 610,1571 613,1571 614,1572 617,1572 618,1573 622,1573 623,1574 626,1574 627,1575 631,1575 632,1576 635,1576 636,1577 641,1577 642,1578 646,1578 647,1579 651,1579 652,1580 656,1580 657,1581 662,1581 663,1582 668,1582 669,1583 674,1583 675,1584 680,1584 681,1585 687,1585 688,1586 696,1586 697,1587 704,1587 705,1588 712,1588 713,1589 722,1589 723,1590 734,1590 735,1591 748,1591 749,1592 770,1592 771,1593 828,1593 829,1592 851,1592 852,1591 866,1591 867,1590 877,1590 878,1589 888,1589 889,1588 896,1588 897,1587 902,1587 903,1586 911,1586 912,1585 918,1585 919,1584 924,1584 925,1583 931,1583 932,1582 937,1582 938,1581 944,1581 945,1580 949,1580 950,1579 954,1579 955,1578 959,1578 960,1577 963,1577 964,1576 968,1576 969,1575 973,1575 974,1574 977,1574 978,1573 982,1573 983,1572 986,1572 987,1571 990,1571 991,1570 994,1570 995,1569 999,1569 1000,1568 1002,1568 1003,1567 1006,1567 1007,1566 1010,1566 1011,1565 1013,1565 1014,1564 1017,1564 1018,1563 1020,1563 1021,1562 1024,1562 1025,1561 1027,1561 1028,1560 1031,1560 1032,1559 1034,1559 1035,1558 1037,1558 1038,1557 1040,1557 1041,1556 1043,1556 1044,1555 1046,1555 1047,1554 1049,1554 1050,1553 1053,1553 1054,1552 1056,1552 1057,1551 1059,1551 1060,1550 1061,1550 1062,1549 1063,1549 1064,1548 1065,1548 1066,1547 1069,1547 1070,1546 1071,1546 1072,1545 1075,1545 1076,1544 1077,1544 1078,1543 1079,1543 1080,1542 1083,1542 1084,1541 1086,1541 1087,1540 1088,1540 1089,1539 1091,1539 1092,1538 1094,1538 1095,1537 1096,1537 1097,1536 1098,1536 1099,1535 1101,1535 1102,1534 1103,1534 1104,1533 1105,1533 1106,1532 1107,1532 1108,1531 1110,1531 1111,1530 1113,1530 1114,1529 1115,1529 1116,1528 1117,1528 1118,1527 1119,1527 1120,1526 1121,1526 1122,1525 1123,1525 1124,1524 1126,1524 1127,1523 1128,1523 1129,1522 1130,1522 1131,1521 1133,1521 1134,1520 1135,1520 1136,1519 1137,1519 1138,1518 1139,1518 1140,1517 1141,1517 1142,1516 1143,1516 1144,1515 1145,1515 1146,1514 1147,1514 1148,1513 1150,1513 1151,1512 1152,1512 1153,1511 1154,1511 1156,1509 1158,1509 1160,1507 1161,1507 1162,1506 1164,1506 1165,1505 1166,1505 1170,1501 1171,1501 1172,1500 1174,1500 1175,1499 1176,1499 1177,1498 1178,1498 1179,1497 1180,1497 1181,1496 1182,1496 1184,1494 1185,1494 1188,1491 1189,1491 1190,1490 1192,1490 1193,1489 1194,1489 1196,1487 1198,1487 1199,1486 1200,1486 1203,1483 1204,1483 1205,1482 1206,1482 1207,1481 1208,1481 1210,1479 1211,1479 1212,1478 1213,1478 1215,1476 1216,1476 1219,1473 1221,1473 1222,1472 1223,1472 1226,1469 1227,1469 1228,1468 1229,1468 1234,1463 1236,1463 1240,1459 1242,1459 1244,1457 1245,1457 1249,1453 1250,1453 1251,1452 1252,1452 1252,1451 1253,1450 1253,1448 1254,1447 1258,1447 1259,1446 1260,1446 1262,1444 1263,1444 1264,1443 1266,1443 1273,1436 1274,1436 1276,1434 1277,1434 1278,1433 1280,1433 1281,1432 1281,1431 1285,1427 1286,1427 1288,1425 1289,1425 1291,1423 1292,1423 1297,1418 1298,1418 1304,1412 1305,1412 1311,1406 1312,1406 1319,1399 1320,1399 1328,1391 1329,1391 1333,1387 1334,1387 1335,1386 1335,1385 1339,1381 1340,1381 1350,1371 1351,1371 1355,1367 1355,1366 1361,1360 1362,1360 1363,1359 1363,1358 1365,1356 1366,1356 1369,1353 1369,1352 1376,1345 1376,1344 1378,1342 1379,1342 1382,1339 1382,1338 1394,1326 1394,1325 1402,1317 1402,1316 1409,1309 1409,1307 1414,1302 1414,1301 1419,1296 1419,1295 1423,1291 1423,1290 1427,1286 1427,1285 1431,1281 1431,1280 1433,1278 1433,1277 1436,1274 1436,1273 1437,1272 1437,1271 1442,1266 1442,1265 1444,1263 1444,1262 1447,1259 1447,1258 1448,1257 1448,1256 1452,1252 1452,1251 1454,1249 1454,1248 1456,1246 1456,1245 1457,1244 1457,1243 1460,1240 1460,1239 1462,1237 1462,1236 1464,1234 1464,1233 1467,1230 1467,1229 1468,1228 1468,1227 1469,1226 1469,1225 1471,1223 1471,1222 1472,1221 1472,1220 1475,1217 1475,1216 1476,1215 1476,1214 1478,1212 1478,1211 1479,1210 1479,1209 1481,1207 1481,1206 1482,1205 1482,1204 1484,1202 1484,1201 1485,1200 1485,1199 1486,1198 1486,1197 1487,1196 1487,1195 1489,1193 1489,1192 1490,1191 1490,1190 1491,1189 1491,1188 1493,1186 1493,1185 1494,1184 1494,1183 1495,1182 1495,1181 1496,1180 1496,1179 1497,1178 1497,1177 1498,1176 1498,1175 1499,1174 1499,1173 1500,1172 1500,1171 1501,1170 1501,1169 1502,1168 1502,1167 1504,1165 1504,1164 1505,1163 1505,1162 1506,1161 1506,1159 1507,1158 1507,1157 1508,1156 1508,1155 1509,1154 1509,1153 1511,1151 1511,1150 1512,1149 1512,1148 1513,1147 1513,1146 1514,1145 1514,1143 1515,1142 1515,1141 1516,1140 1516,1139 1517,1138 1517,1137 1518,1136 1518,1135 1519,1134 1519,1133 1520,1132 1520,1130 1521,1129 1521,1128 1522,1127 1522,1126 1523,1125 1523,1124 1524,1123 1524,1121 1525,1120 1525,1119 1526,1118 1526,1117 1527,1116 1527,1114 1528,1113 1528,1112 1529,1111 1529,1110 1530,1109 1530,1108 1531,1107 1531,1105 1532,1104 1532,1103 1533,1102 1533,1100 1534,1099 1534,1098 1535,1097 1535,1095 1536,1094 1536,1093 1537,1092 1537,1090 1538,1089 1538,1088 1539,1087 1539,1085 1540,1084 1540,1082 1541,1081 1541,1080 1542,1079 1542,1077 1543,1076 1543,1074 1544,1073 1544,1071 1545,1070 1545,1069 1546,1068 1546,1065 1547,1064 1547,1063 1548,1062 1548,1060 1549,1059 1549,1057 1550,1056 1550,1054 1551,1053 1551,1051 1552,1050 1552,1048 1553,1047 1553,1045 1554,1044 1554,1042 1555,1041 1555,1039 1556,1038 1556,1035 1557,1034 1557,1032 1558,1031 1558,1029 1559,1028 1559,1025 1560,1024 1560,1022 1561,1021 1561,1017 1562,1016 1562,1015 1563,1014 1563,1011 1564,1010 1564,1007 1565,1006 1565,1004 1566,1003 1566,999 1567,998 1567,995 1568,994 1568,991 1569,990 1569,987 1570,986 1570,983 1571,982 1571,978 1572,977 1572,974 1573,973 1573,969 1574,968 1574,964 1575,963 1575,959 1576,958 1576,954 1577,953 1577,948 1578,947 1578,943 1579,942 1579,938 1580,937 1580,932 1581,931 1581,925 1582,924 1582,918 1583,917 1583,912 1584,911 1584,903 1585,902 1585,895 1586,894 1586,885 1587,884 1587,875 1588,874 1588,863 1589,862 1589,848 1590,847 1590,811 1591,810 1591,805 1590,804 1590,803 1591,802 1591,794 1590,793 1590,758 1589,757 1589,743 1588,742 1588,731 1587,730 1587,720 1586,719 1586,710 1585,709 1585,702 1584,701 1584,694 1583,693 1583,687 1582,686 1582,680 1581,679 1581,673 1580,672 1580,668 1579,667 1579,663 1578,662 1578,656 1577,655 1577,652 1576,651 1576,646 1575,645 1575,642 1574,641 1574,636 1573,635 1573,632 1572,631 1572,627 1571,626 1571,623 1570,622 1570,618 1569,617 1569,615 1568,614 1568,610 1567,609 1567,606 1566,605 1566,602 1565,601 1565,599 1564,598 1564,595 1563,594 1563,591 1562,590 1562,587 1561,586 1561,584 1560,583 1560,581 1559,580 1559,577 1558,576 1558,574 1557,573 1557,570 1556,569 1556,567 1555,566 1555,564 1554,563 1554,561 1553,560 1553,558 1552,557 1552,555 1551,554 1551,552 1550,551 1550,549 1549,548 1549,546 1548,545 1548,543 1547,542 1547,540 1546,539 1546,537 1545,536 1545,534 1544,533 1544,532 1543,531 1543,529 1542,528 1542,526 1541,525 1541,523 1540,522 1540,521 1539,520 1539,518 1538,517 1538,516 1537,515 1537,513 1536,512 1536,510 1535,509 1535,508 1534,507 1534,505 1533,504 1533,503 1532,502 1532,500 1531,499 1531,498 1530,497 1530,496 1529,495 1529,493 1528,492 1528,491 1527,490 1527,489 1526,488 1526,486 1525,485 1525,484 1524,483 1524,482 1523,481 1523,479 1522,478 1522,477 1521,476 1521,475 1520,474 1520,473 1519,472 1519,470 1518,469 1518,468 1517,467 1517,466 1516,465 1516,464 1515,463 1515,462 1514,461 1514,460 1513,459 1513,458 1512,457 1512,456 1511,455 1511,454 1510,453 1510,452 1509,451 1509,450 1508,449 1508,448 1507,447 1507,446 1506,445 1506,444 1505,443 1505,442 1504,441 1504,440 1503,439 1503,438 1502,437 1502,436 1501,435 1501,434 1500,433 1500,432 1499,431 1499,430 1497,428 1497,427 1496,426 1496,425 1495,424 1495,423 1494,422 1494,421 1493,420 1493,419 1492,418 1492,417 1490,415 1490,414 1489,413 1489,412 1488,411 1488,410 1486,408 1486,407 1485,406 1485,405 1483,403 1483,402 1482,401 1482,400 1481,399 1481,398 1480,397 1480,396 1478,394 1478,393 1477,392 1477,391 1475,389 1475,388 1473,386 1473,385 1472,384 1472,383 1469,380 1469,379 1468,378 1468,377 1467,376 1467,375 1465,373 1465,372 1463,370 1463,369 1461,367 1461,366 1459,364 1459,363 1457,361 1457,360 1454,357 1454,356 1453,355 1453,354 1451,352 1451,351 1448,348 1448,347 1445,344 1445,343 1444,342 1444,341 1441,338 1441,337 1438,334 1438,333 1434,329 1434,328 1433,327 1433,326 1430,323 1430,322 1427,319 1427,318 1421,312 1421,311 1419,309 1419,308 1415,304 1415,303 1409,297 1409,296 1404,291 1404,290 1399,285 1399,284 1394,279 1394,278 1382,266 1382,265 1336,219 1335,219 1325,209 1324,209 1319,204 1318,204 1312,198 1311,198 1305,192 1304,192 1300,188 1299,188 1296,185 1295,185 1290,180 1289,180 1285,176 1284,176 1280,172 1279,172 1278,171 1277,171 1273,167 1272,167 1271,166 1270,166 1267,163 1266,163 1262,159 1261,159 1259,157 1258,157 1255,154 1254,154 1252,152 1251,152 1249,150 1248,150 1246,148 1245,148 1243,146 1242,146 1240,144 1239,144 1237,142 1236,142 1234,140 1233,140 1231,138 1230,138 1228,136 1227,136 1225,134 1224,134 1223,133 1222,133 1221,132 1220,132 1217,129 1216,129 1214,127 1213,127 1212,126 1211,126 1210,125 1209,125 1207,123 1206,123 1205,122 1204,122 1202,120 1201,120 1200,119 1199,119 1197,117 1196,117 1195,116 1194,116 1193,115 1192,115 1190,113 1189,113 1188,112 1187,112 1186,111 1185,111 1184,110 1183,110 1182,109 1181,109 1179,107 1178,107 1177,106 1176,106 1175,105 1174,105 1173,104 1172,104 1170,102 1169,102 1168,101 1167,101 1166,100 1165,100 1164,99 1163,99 1162,98 1161,98 1160,97 1159,97 1158,96 1157,96 1156,95 1154,95 1152,93 1151,93 1150,92 1149,92 1148,91 1147,91 1146,90 1145,90 1144,89 1142,89 1140,87 1139,87 1138,86 1137,86 1136,85 1134,85 1133,84 1132,84 1131,83 1129,83 1128,82 1127,82 1126,81 1125,81 1124,80 1123,80 1122,79 1121,79 1120,78 1119,78 1118,77 1117,77 1116,76 1114,76 1113,75 1112,75 1111,74 1109,74 1108,73 1107,73 1106,72 1105,72 1104,71 1102,71 1101,70 1099,70 1098,69 1097,69 1096,68 1095,68 1094,67 1092,67 1091,66 1090,66 1089,65 1087,65 1086,64 1084,64 1083,63 1082,63 1081,62 1080,62 1079,61 1077,61 1076,60 1074,60 1073,59 1072,59 1071,58 1069,58 1068,57 1066,57 1065,56 1063,56 1062,55 1060,55 1059,54 1057,54 1056,53 1054,53 1053,52 1052,52 1051,51 1048,51 1047,50 1045,50 1044,49 1042,49 1041,48 1040,48 1039,47 1036,47 1035,46 1033,46 1032,45 1029,45 1028,44 1026,44 1025,43 1023,43 1022,42 1020,42 1019,41 1015,41 1014,40 1013,40 1012,39 1008,39 1007,38 1005,38 1004,37 1001,37 1000,36 998,36 997,35 993,35 992,34 990,34 989,33 985,33 984,32 980,32 979,31 977,31 976,30 972,30 971,29 968,29 967,28 963,28 962,27 957,27 956,26 954,26 953,25 948,25 947,24 943,24 942,23 937,23 936,22 931,22 930,21 925,21 924,20 918,20 917,19 912,19 911,18 904,18 903,17 896,17 895,16 888,16 887,15 878,15 877,14 866,14 865,13 853,13 852,12 832,12 831,11" stroke="black" stroke-width="1" /><polyline fill="none" points="778,12 779,11 831,11 832,12 852,12 853,13 865,13 866,14 877,14 878,15 887,15 888,16 895,16 896,17 903,17 904,18 911,18 912,19 917,19 918,20 924,20 925,21 930,21 931,22 936,22 937,23 942,23 943,24 947,24 948,25 953,25 954,26 956,26 957,27 962,27 963,28 967,28 968,29 971,29 972,30 976,30 977,31 979,31 980,32 984,32 985,33 989,33 990,34 992,34 993,35 997,35 998,36 1000,36 1001,37 1004,37 1005,38 1007,38 1008,39 1012,39 1013,40 1014,40 1015,41 1019,41 1020,42 1022,42 1023,43 1025,43 1026,44 1028,44 1029,45 1032,45 1033,46 1035,46 1036,47 1039,47 1040,48 1041,48 1042,49 1044,49 1045,50 1047,50 1048,51 1051,51 1052,52 1053,52 1054,53 1056,53 1057,54 1059,54 1060,55 1062,55 1063,56 1065,56 1066,57 1068,57 1069,58 1071,58 1072,59 1073,59 1074,60 1076,60 1077,61 1079,61 1080,62 1081,62 1082,63 1083,63 1084,64 1086,64 1087,65 1089,65 1090,66 1091,66 1092,67 1094,67 1095,68 1096,68 1097,69 1098,69 1099,70 1101,70 1102,71 1104,71 1105,72 1106,72 1107,73 1108,73 1109,74 1111,74 1112,75 1113,75 1114,76 1116,76 1117,77 1118,77 1119,78 1120,78 1121,79 1122,79 1123,80 1124,80 1125,81 1126,81 1127,82 1128,82 1129,83 1131,83 1132,84 1133,84 1134,85 1136,85 1137,86 1138,86 1140,88 1141,88 1142,89 1144,89 1145,90 1146,90 1147,91 1148,91 1149,92 1150,92 1152,94 1153,94 1154,95 1156,95 1157,96 1158,96 1159,97 1160,97 1161,98 1162,98 1164,100 1166,100 1167,101 1168,101 1170,103 1171,103 1172,104 1173,104 1175,106 1177,106 1179,108 1180,108 1181,109 1182,109 1183,110 1184,110 1185,111 1186,111 1187,112 1188,112 1190,114 1191,114 1192,115 1193,115 1194,116 1195,116 1197,118 1198,118 1199,119 1200,119 1202,121 1203,121 1204,122 1205,122 1207,124 1208,124 1209,125 1210,125 1211,126 1212,126 1214,128 1215,128 1219,132 1221,132 1222,133 1223,133 1225,135 1226,135 1228,137 1229,137 1231,139 1232,139 1234,141 1235,141 1237,143 1238,143 1240,145 1241,145 1243,147 1244,147 1246,149 1247,149 1249,151 1250,151 1252,153 1253,153 1256,156 1257,156 1259,158 1260,158 1264,162 1265,162 1268,165 1269,165 1270,166 1271,166 1275,170 1276,170 1277,171 1278,171 1282,175 1283,175 1287,179 1288,179 1293,184 1294,184 1297,187 1298,187 1302,191 1303,191 1309,197 1310,197 1316,203 1317,203 1322,208 1323,208 1333,218 1334,218 1383,267 1383,268 1395,280 1395,281 1400,286 1400,287 1405,292 1405,293 1410,298 1410,299 1416,305 1416,306 1420,310 1420,311 1422,313 1422,314 1428,320 1428,321 1431,324 1431,325 1434,328 1434,329 1435,330 1435,331 1439,335 1439,336 1442,339 1442,340 1445,343 1445,344 1446,345 1446,346 1449,349 1449,350 1452,353 1452,354 1454,356 1454,357 1455,358 1455,359 1458,362 1458,363 1460,365 1460,366 1462,368 1462,369 1464,371 1464,372 1466,374 1466,375 1468,377 1468,378 1469,379 1469,380 1470,381 1470,382 1473,385 1473,386 1474,387 1474,388 1476,390 1476,391 1478,393 1478,394 1479,395 1479,396 1481,398 1481,399 1482,400 1482,401 1483,402 1483,403 1484,404 1484,405 1486,407 1486,408 1487,409 1487,410 1489,412 1489,413 1490,414 1490,415 1491,416 1491,417 1493,419 1493,420 1494,421 1494,422 1495,423 1495,424 1496,425 1496,426 1497,427 1497,428 1498,429 1498,430 1500,432 1500,433 1501,434 1501,435 1502,436 1502,437 1503,438 1503,439 1504,440 1504,441 1505,442 1505,443 1506,444 1506,445 1507,446 1507,447 1508,448 1508,449 1509,450 1509,451 1510,452 1510,453 1511,454 1511,455 1512,456 1512,457 1513,458 1513,459 1514,460 1514,461 1515,462 1515,463 1516,464 1516,465 1517,466 1517,467 1518,468 1518,469 1519,470 1519,472 1520,473 1520,474 1521,475 1521,476 1522,477 1522,478 1523,479 1523,481 1524,482 1524,483 1525,484 1525,485 1526,486 1526,488 1527,489 1527,490 1528,491 1528,492 1529,493 1529,495 1530,496 1530,497 1531,498 1531,499 1532,500 1532,502 1533,503 1533,504 1534,505 1534,507 1535,508 1535,509 1536,510 1536,512 1537,513 1537,515 1538,516 1538,517 1539,518 1539,520 1540,521 1540,522 1541,523 1541,525 1542,526 1542,528 1543,529 1543,531 1544,532 1544,533 1545,534 1545,536 1546,537 1546,539 1547,540 1547,542 1548,543 1548,545 1549,546 1549,548 1550,549 1550,551 1551,552 1551,554 1552,555 1552,557 1553,558 1553,560 1554,561 1554,563 1555,564 1555,566 1556,567 1556,569 1557,570 1557,573 1558,574 1558,576 1559,577 1559,580 1560,581 1560,583 1561,584 1561,586 1562,587 1562,590 1563,591 1563,594 1564,595 1564,598 1565,599 1565,601 1566,602 1566,605 1567,606 1567,609 1568,610 1568,614 1569,615 1569,617 1570,618 1570,622 1571,623 1571,626 1572,627 1572,631 1573,632 1573,635 1574,636 1574,641 1575,642 1575,645 1576,646 1576,651 1577,652 1577,655 1578,656 1578,662 1579,663 1579,667 1580,668 1580,672 1581,673 1581,679 1582,680 1582,686 1583,687 1583,693 1584,694 1584,701 1585,702 1585,709 1586,710 1586,719 1587,720 1587,730 1588,731 1588,742 1589,743 1589,757 1590,758 1590,793 1591,794 1591,802 1590,803 1590,804 1591,805 1591,810 1590,811 1590,847 1589,848 1589,862 1588,863 1588,874 1587,875 1587,884 1586,885 1586,894 1585,895 1585,902 1584,903 1584,911 1583,912 1583,917 1582,918 1582,924 1581,925 1581,931 1580,932 1580,937 1579,938 1579,942 1578,943 1578,947 1577,948 1577,953 1576,954 1576,958 1575,959 1575,963 1574,964 1574,968 1573,969 1573,973 1572,974 1572,977 1571,978 1571,982 1570,983 1570,986 1569,987 1569,990 1568,991 1568,994 1567,995 1567,998 1566,999 1566,1003 1565,1004 1565,1006 1564,1007 1564,1010 1563,1011 1563,1014 1562,1015 1562,1016 1561,1017 1561,1021 1560,1022 1560,1024 1559,1025 1559,1028 1558,1029 1558,1031 1557,1032 1557,1034 1556,1035 1556,1038 1555,1039 1555,1041 1554,1042 1554,1044 1553,1045 1553,1047 1552,1048 1552,1050 1551,1051 1551,1053 1550,1054 1550,1056 1549,1057 1549,1059 1548,1060 1548,1062 1547,1063 1547,1064 1546,1065 1546,1068 1545,1069 1545,1070 1544,1071 1544,1073 1543,1074 1543,1076 1542,1077 1542,1079 1541,1080 1541,1081 1540,1082 1540,1084 1539,1085 1539,1087 1538,1088 1538,1089 1537,1090 1537,1092 1536,1093 1536,1094 1535,1095 1535,1097 1534,1098 1534,1099 1533,1100 1533,1102 1532,1103 1532,1104 1531,1105 1531,1107 1530,1108 1530,1109 1529,1110 1529,1111 1528,1112 1528,1113 1527,1114 1527,1116 1526,1117 1526,1118 1525,1119 1525,1120 1524,1121 1524,1123 1523,1124 1523,1125 1522,1126 1522,1127 1521,1128 1521,1129 1520,1130 1520,1132 1519,1133 1519,1134 1518,1135 1518,1136 1517,1137 1517,1138 1516,1139 1516,1140 1515,1141 1515,1142 1514,1143 1514,1145 1513,1146 1513,1147 1512,1148 1512,1149 1510,1151 1510,1152 1509,1153 1509,1154 1508,1155 1508,1156 1507,1157 1507,1158 1506,1159 1506,1161 1505,1162 1505,1163 1503,1165 1503,1166 1502,1167 1502,1168 1501,1169 1501,1170 1500,1171 1500,1172 1499,1173 1499,1174 1498,1175 1498,1176 1497,1177 1497,1178 1496,1179 1496,1180 1495,1181 1495,1182 1494,1183 1494,1184 1492,1186 1492,1187 1491,1188 1491,1189 1490,1190 1490,1191 1488,1193 1488,1194 1487,1195 1487,1196 1486,1197 1486,1198 1485,1199 1485,1200 1483,1202 1483,1203 1482,1204 1482,1205 1480,1207 1480,1208 1479,1209 1479,1210 1477,1212 1477,1213 1476,1214 1476,1215 1473,1218 1473,1219 1472,1220 1472,1221 1470,1223 1470,1224 1469,1225 1469,1226 1468,1227 1468,1228 1465,1231 1465,1232 1463,1234 1463,1235 1461,1237 1461,1238 1458,1241 1458,1242 1457,1243 1457,1244 1455,1246 1455,1247 1453,1249 1453,1250 1449,1254 1449,1255 1448,1256 1448,1257 1445,1260 1445,1261 1443,1263 1443,1264 1438,1269 1438,1270 1437,1271 1437,1272 1434,1275 1434,1276 1432,1278 1432,1279 1428,1283 1428,1284 1424,1288 1424,1289 1420,1293 1420,1294 1415,1299 1415,1300 1410,1305 1410,1306 1409,1307 1409,1308 1403,1314 1403,1315 1395,1323 1395,1324 1383,1336 1383,1337 1370,1350 1370,1351 1360,1361 1359,1361 1356,1364 1356,1365 1349,1372 1348,1372 1338,1382 1337,1382 1336,1383 1336,1384 1332,1388 1331,1388 1327,1392 1326,1392 1318,1400 1317,1400 1310,1407 1309,1407 1303,1413 1302,1413 1296,1419 1295,1419 1290,1424 1289,1424 1287,1426 1286,1426 1284,1428 1283,1428 1282,1429 1282,1430 1279,1433 1278,1433 1277,1434 1276,1434 1275,1435 1274,1435 1272,1437 1271,1437 1265,1443 1264,1443 1263,1444 1262,1444 1261,1445 1260,1445 1258,1447 1253,1447 1253,1450 1250,1453 1249,1453 1248,1454 1247,1454 1243,1458 1242,1458 1241,1459 1240,1459 1239,1460 1238,1460 1235,1463 1234,1463 1233,1464 1232,1464 1227,1469 1226,1469 1225,1470 1224,1470 1221,1473 1219,1473 1218,1474 1217,1474 1214,1477 1213,1477 1211,1479 1210,1479 1209,1480 1208,1480 1206,1482 1205,1482 1204,1483 1203,1483 1202,1484 1201,1484 1198,1487 1196,1487 1195,1488 1194,1488 1192,1490 1190,1490 1189,1491 1188,1491 1187,1492 1186,1492 1183,1495 1182,1495 1180,1497 1179,1497 1178,1498 1177,1498 1176,1499 1175,1499 1174,1500 1172,1500 1171,1501 1170,1501 1169,1502 1168,1502 1164,1506 1162,1506 1161,1507 1160,1507 1159,1508 1158,1508 1157,1509 1156,1509 1155,1510 1154,1510 1152,1512 1151,1512 1150,1513 1148,1513 1147,1514 1146,1514 1145,1515 1144,1515 1143,1516 1142,1516 1141,1517 1140,1517 1139,1518 1138,1518 1137,1519 1136,1519 1135,1520 1134,1520 1133,1521 1131,1521 1130,1522 1129,1522 1128,1523 1127,1523 1126,1524 1124,1524 1123,1525 1122,1525 1121,1526 1120,1526 1119,1527 1118,1527 1117,1528 1116,1528 1115,1529 1114,1529 1113,1530 1111,1530 1110,1531 1108,1531 1107,1532 1106,1532 1105,1533 1104,1533 1103,1534 1102,1534 1101,1535 1099,1535 1098,1536 1097,1536 1096,1537 1095,1537 1094,1538 1092,1538 1091,1539 1089,1539 1088,1540 1087,1540 1086,1541 1084,1541 1083,1542 1080,1542 1079,1543 1078,1543 1077,1544 1076,1544 1075,1545 1072,1545 1071,1546 1070,1546 1069,1547 1066,1547 1065,1548 1064,1548 1063,1549 1062,1549 1061,1550 1060,1550 1059,1551 1057,1551 1056,1552 1054,1552 1053,1553 1050,1553 1049,1554 1047,1554 1046,1555 1044,1555 1043,1556 1041,1556 1040,1557 1038,1557 1037,1558 1035,1558 1034,1559 1032,1559 1031,1560 1028,1560 1027,1561 1025,1561 1024,1562 1021,1562 1020,1563 1018,1563 1017,1564 1014,1564 1013,1565 1011,1565 1010,1566 1007,1566 1006,1567 1003,1567 1002,1568 1000,1568 999,1569 995,1569 994,1570 991,1570 990,1571 987,1571 986,1572 983,1572 982,1573 978,1573 977,1574 974,1574 973,1575 969,1575 968,1576 964,1576 963,1577 960,1577 959,1578 955,1578 954,1579 950,1579 949,1580 945,1580 944,1581 938,1581 937,1582 932,1582 931,1583 925,1583 924,1584 919,1584 918,1585 912,1585 911,1586 903,1586 902,1587 897,1587 896,1588 889,1588 888,1589 878,1589 877,1590 867,1590 866,1591 852,1591 851,1592 829,1592 828,1593 771,1593 770,1592 749,1592 748,1591 735,1591 734,1590 723,1590 722,1589 713,1589 712,1588 705,1588 704,1587 697,1587 696,1586 688,1586 687,1585 681,1585 680,1584 675,1584 674,1583 669,1583 668,1582 663,1582 662,1581 657,1581 656,1580 652,1580 651,1579 647,1579 646,1578 642,1578 641,1577 636,1577 635,1576 632,1576 631,1575 627,1575 626,1574 623,1574 622,1573 618,1573 617,1572 614,1572 613,1571 610,1571 609,1570 606,1570 605,1569 603,1569 602,1568 599,1568 598,1567 595,1567 594,1566 591,1566 590,1565 587,1565 586,1564 584,1564 583,1563 581,1563 580,1562 577,1562 576,1561 574,1561 573,1560 570,1560 569,1559 566,1559 565,1558 563,1558 562,1557 560,1557 559,1556 557,1556 556,1555 554,1555 553,1554 551,1554 550,1553 548,1553 547,1552 545,1552 544,1551 542,1551 541,1550 539,1550 538,1549 537,1549 536,1548 534,1548 533,1547 531,1547 530,1546 529,1546 528,1545 526,1545 525,1544 523,1544 522,1543 520,1543 519,1542 517,1542 516,1541 515,1541 514,1540 512,1540 511,1539 510,1539 509,1538 507,1538 506,1537 505,1537 504,1536 502,1536 501,1535 500,1535 499,1534 497,1534 496,1533 495,1533 494,1532 492,1532 491,1531 490,1531 489,1530 488,1530 487,1529 485,1529 484,1528 483,1528 482,1527 481,1527 480,1526 478,1526 477,1525 476,1525 475,1524 474,1524 473,1523 472,1523 471,1522 470,1522 469,1521 468,1521 467,1520 465,1520 464,1519 463,1519 462,1518 461,1518 460,1517 459,1517 458,1516 457,1516 456,1515 455,1515 454,1514 453,1514 452,1513 451,1513 450,1512 449,1512 448,1511 447,1511 446,1510 444,1510 442,1508 441,1508 440,1507 439,1507 438,1506 437,1506 436,1505 435,1505 434,1504 433,1504 432,1503 431,1503 430,1502 429,1502 428,1501 427,1501 426,1500 425,1500 424,1499 423,1499 421,1497 420,1497 419,1496 418,1496 417,1495 416,1495 415,1494 414,1494 412,1492 411,1492 410,1491 409,1491 408,1490 407,1490 405,1488 404,1488 403,1487 402,1487 401,1486 400,1486 398,1484 397,1484 396,1483 395,1483 393,1481 392,1481 390,1479 389,1479 388,1478 387,1478 385,1476 384,1476 383,1475 382,1475 380,1473 379,1473 377,1471 376,1471 374,1469 373,1469 372,1468 371,1468 369,1466 368,1466 366,1464 365,1464 363,1462 362,1462 360,1460 359,1460 357,1458 356,1458 354,1456 353,1456 351,1454 350,1454 347,1451 346,1451 344,1449 343,1449 341,1447 340,1447 337,1444 336,1444 333,1441 332,1441 329,1438 328,1438 325,1435 324,1435 321,1432 320,1432 317,1429 316,1429 312,1425 311,1425 307,1421 306,1421 302,1417 301,1417 296,1412 295,1412 290,1407 289,1407 283,1401 282,1401 274,1393 273,1393 261,1381 260,1381 221,1342 221,1341 212,1332 212,1331 203,1322 203,1321 198,1316 198,1315 191,1308 191,1307 186,1302 186,1301 182,1297 182,1296 178,1292 178,1291 175,1288 175,1287 171,1283 171,1282 168,1279 168,1278 165,1275 165,1274 162,1271 162,1270 160,1268 160,1267 156,1263 156,1262 154,1260 154,1259 151,1256 151,1255 149,1253 149,1252 147,1250 147,1249 145,1247 145,1246 143,1244 143,1243 141,1241 141,1240 139,1238 139,1237 137,1235 137,1234 135,1232 135,1231 133,1229 133,1228 132,1227 132,1226 130,1224 130,1223 128,1221 128,1220 126,1218 126,1217 125,1216 125,1215 123,1213 123,1212 122,1211 122,1210 121,1209 121,1208 119,1206 119,1205 118,1204 118,1203 116,1201 116,1200 115,1199 115,1198 113,1196 113,1195 112,1194 112,1193 111,1192 111,1191 110,1190 110,1189 108,1187 108,1186 107,1185 107,1184 106,1183 106,1182 105,1181 105,1180 103,1178 103,1177 102,1176 102,1175 101,1174 101,1173 100,1172 100,1171 99,1170 99,1169 98,1168 98,1167 97,1166 97,1165 96,1164 96,1163 95,1162 95,1161 94,1160 94,1159 92,1157 92,1155 91,1154 91,1153 90,1152 90,1151 88,1149 88,1148 87,1147 87,1146 86,1145 86,1143 85,1142 85,1141 84,1140 84,1139 83,1138 83,1137 82,1136 82,1134 81,1133 81,1132 80,1131 80,1130 79,1129 79,1128 78,1127 78,1126 77,1125 77,1124 76,1123 76,1121 75,1120 75,1119 74,1118 74,1117 73,1116 73,1114 72,1113 72,1112 71,1111 71,1110 70,1109 70,1108 69,1107 69,1105 68,1104 68,1103 67,1102 67,1100 66,1099 66,1098 65,1097 65,1095 64,1094 64,1093 63,1092 63,1090 62,1089 62,1087 61,1086 61,1085 60,1084 60,1082 59,1081 59,1079 58,1078 58,1077 57,1076 57,1074 56,1073 56,1072 55,1071 55,1069 54,1068 54,1066 53,1065 53,1063 52,1062 52,1060 51,1059 51,1057 50,1056 50,1054 49,1053 49,1051 48,1050 48,1048 47,1047 47,1045 46,1044 46,1042 45,1041 45,1039 44,1038 44,1035 43,1034 43,1032 42,1031 42,1029 41,1028 41,1026 40,1025 40,1022 39,1021 39,1018 38,1017 38,1015 37,1014 37,1011 36,1010 36,1007 35,1006 35,1004 34,1003 34,1000 33,999 33,996 32,995 32,992 31,991 31,988 30,987 30,983 29,982 29,979 28,978 28,974 27,973 27,970 26,969 26,965 25,964 25,960 24,959 24,956 23,955 23,950 22,949 22,942 21,941 21,937 20,936 20,932 19,931 19,926 18,925 18,919 17,918 17,914 16,913 16,905 15,904 15,898 14,897 14,889 13,888 13,879 12,878 12,866 11,865 11,852 10,851 10,834 9,833 9,774 10,773 10,753 11,752 11,741 12,740 12,728 13,727 13,718 14,717 14,709 15,708 15,700 16,699 16,694 17,693 17,688 18,687 18,681 19,680 19,674 20,673 20,668 21,667 21,663 22,662 22,658 23,657 23,651 24,650 24,647 25,646 25,642 26,641 26,637 27,636 27,632 28,631 28,628 29,627 29,624 30,623 30,619 31,618 31,614 32,613 32,611 33,610 33,607 34,606 34,603 35,602 35,599 36,598 36,595 37,594 37,592 38,591 38,589 39,588 39,585 40,584 40,581 41,580 41,578 42,577 42,575 43,574 43,571 44,570 44,568 45,567 45,565 46,564 46,561 47,560 47,558 48,557 48,556 49,555 49,552 50,551 50,550 51,549 51,547 52,546 52,544 53,543 53,541 54,540 54,538 55,537 55,535 56,534 56,532 57,531 57,529 58,528 58,527 59,526 59,524 60,523 60,522 61,521 61,519 62,518 62,516 63,515 63,514 64,513 64,511 65,510 65,508 66,507 66,506 67,505 67,504 68,503 68,501 69,500 69,499 70,498 70,496 71,495 71,494 72,493 72,492 73,491 73,489 74,488 74,487 75,486 75,485 76,484 76,483 77,482 77,481 78,480 78,478 79,477 79,476 80,475 80,474 81,473 81,472 82,471 82,469 83,468 83,467 84,466 84,465 85,464 85,463 86,462 86,461 87,460 87,459 88,458 88,457 89,456 89,455 90,454 90,453 91,452 91,451 92,450 92,449 93,448 93,447 94,446 94,445 95,444 95,443 96,442 96,441 97,440 97,439 98,438 98,437 99,436 99,435 100,434 100,433 102,431 102,429 103,428 103,427 105,425 105,424 106,423 106,422 107,421 107,420 109,418 109,417 110,416 110,415 111,414 111,413 113,411 113,410 114,409 114,408 115,407 115,406 116,405 116,404 118,402 118,401 119,400 119,399 121,397 121,396 123,394 123,393 124,392 124,391 125,390 125,389 127,387 127,386 129,384 129,383 130,382 130,381 132,379 132,378 134,376 134,375 135,374 135,373 137,371 137,370 139,368 139,367 142,364 142,363 143,362 143,361 145,359 145,358 148,355 148,354 150,352 150,351 152,349 152,348 156,344 156,343 157,342 157,341 159,339 159,338 162,335 162,334 166,330 166,329 168,327 168,326 171,323 171,322 175,318 175,317 179,313 179,312 182,309 182,308 187,303 187,302 191,298 191,297 197,291 197,290 203,284 203,283 212,274 212,273 221,264 221,263 247,237 248,237 250,235 250,234 261,223 262,223 268,217 269,217 279,207 280,207 286,201 287,201 293,195 294,195 299,190 300,190 305,185 306,185 311,180 312,180 315,177 316,177 318,175 319,175 323,171 324,171 328,167 329,167 331,165 332,165 333,164 334,164 338,160 339,160 343,156 344,156 346,154 347,154 348,153 349,153 352,150 353,150 355,148 356,148 359,145 360,145 361,144 362,144 365,141 366,141 367,140 368,140 371,137 372,137 374,135 375,135 376,134 377,134 378,133 379,133 381,131 382,131 383,130 384,130 386,128 387,128 389,126 390,126 392,124 393,124 394,123 395,123 396,122 397,122 399,120 400,120 401,119 402,119 404,117 405,117 406,116 407,116 409,114 410,114 411,113 412,113 413,112 414,112 415,111 416,111 418,109 419,109 420,108 421,108 422,107 423,107 424,106 425,106 427,104 428,104 429,103 430,103 431,102 433,102 435,100 436,100 437,99 438,99 439,98 440,98 441,97 442,97 444,95 445,95 446,94 447,94 448,93 450,93 452,91 454,91 455,90 456,90 457,89 458,89 459,88 460,88 461,87 462,87 463,86 464,86 465,85 466,85 467,84 468,84 469,83 471,83 472,82 473,82 474,81 475,81 476,80 477,80 478,79 479,79 480,78 482,78 483,77 484,77 485,76 486,76 487,75 489,75 490,74 491,74 492,73 493,73 494,72 496,72 497,71 498,71 499,70 500,70 501,69 503,69 504,68 505,68 506,67 508,67 509,66 510,66 511,65 513,65 514,64 516,64 517,63 518,63 519,62 521,62 522,61 524,61 525,60 526,60 527,59 529,59 530,58 531,58 532,57 534,57 535,56 537,56 538,55 540,55 541,54 543,54 544,53 546,53 547,52 549,52 550,51 552,51 553,50 555,50 556,49 558,49 559,48 561,48 562,47 565,47 566,46 568,46 569,45 571,45 572,44 574,44 575,43 577,43 578,42 581,42 582,41 585,41 586,40 588,40 589,39 592,39 593,38 595,38 596,37 600,37 601,36 603,36 604,35 607,35 608,34 611,34 612,33 616,33 617,32 619,32 620,31 624,31 625,30 628,30 629,29 633,29 634,28 638,28 639,27 643,27 644,26 647,26 648,25 653,25 654,24 660,24 661,23 664,23 665,22 669,22 670,21 676,21 677,20 682,20 683,19 689,19 690,18 696,18 697,17 705,17 706,16 713,16 714,15 726,15 727,14 735,14 736,13 749,13 750,12" stroke="black" stroke-width="1" /><polyline fill="none" points="778,1385 777,1386 769,1386 769,1387 768,1388 768,1389 767,1390 767,1396 766,1397 766,1405 765,1406 764,1406 764,1407 763,1408 764,1409 764,1414 763,1415 763,1419 765,1421 763,1423 763,1424 762,1425 762,1433 763,1434 763,1435 766,1438 766,1439 767,1440 767,1441 765,1443 763,1443 762,1444 761,1444 761,1450 760,1451 760,1452 761,1453 761,1454 762,1455 762,1457 760,1459 760,1462 762,1464 762,1467 761,1468 761,1476 760,1477 761,1478 761,1479 762,1480 762,1483 760,1485 760,1486 759,1487 760,1488 760,1489 761,1490 761,1493 760,1494 760,1504 761,1505 761,1506 762,1507 762,1510 761,1511 761,1512 760,1513 761,1514 761,1515 763,1517 764,1517 765,1518 767,1518 768,1519 771,1519 772,1520 772,1521 773,1522 773,1523 774,1524 781,1524 782,1523 782,1520 780,1518 780,1516 781,1515 781,1505 779,1503 781,1501 781,1498 780,1497 780,1494 779,1493 779,1486 778,1485 779,1484 779,1483 780,1482 780,1480 779,1479 779,1476 780,1475 780,1473 779,1472 779,1470 780,1469 780,1464 781,1463 781,1460 782,1459 782,1455 781,1454 782,1453 782,1447 780,1445 782,1443 782,1436 781,1435 783,1433 783,1427 784,1426 784,1425 785,1424 785,1419 782,1416 783,1415 783,1413 784,1412 784,1409 783,1408 783,1407 784,1406 784,1398 786,1396 786,1393 785,1392 785,1391 783,1389 783,1386 782,1386 781,1385" stroke="black" stroke-width="1" /><polyline fill="none" points="777,1386 778,1385 781,1385 783,1387 783,1389 784,1390 784,1391 786,1393 786,1395 785,1396 785,1397 784,1398 784,1406 783,1407 783,1408 784,1409 784,1412 783,1413 783,1415 782,1416 783,1417 783,1418 785,1420 785,1424 784,1425 784,1426 783,1427 783,1432 782,1433 782,1434 781,1435 782,1436 782,1442 781,1443 781,1444 780,1445 781,1446 781,1447 782,1448 782,1453 781,1454 782,1455 782,1459 781,1460 781,1463 780,1464 780,1468 779,1469 779,1472 780,1473 780,1475 779,1476 779,1479 780,1480 780,1482 779,1483 779,1484 778,1485 779,1486 779,1493 780,1494 780,1497 781,1498 781,1501 780,1502 779,1502 779,1504 781,1506 781,1515 780,1516 780,1519 782,1521 782,1523 781,1524 775,1524 772,1521 772,1520 771,1519 768,1519 767,1518 765,1518 760,1513 761,1512 761,1511 762,1510 762,1507 761,1506 761,1505 760,1504 760,1495 761,1494 761,1489 759,1487 761,1485 761,1484 762,1483 762,1480 761,1479 761,1478 760,1477 761,1476 761,1468 762,1467 762,1464 761,1463 761,1462 760,1461 760,1460 761,1459 761,1458 762,1457 762,1455 761,1454 761,1453 760,1452 760,1451 761,1450 761,1445 763,1443 765,1443 766,1442 767,1442 767,1439 765,1437 765,1436 762,1433 762,1425 765,1422 765,1420 763,1418 763,1415 764,1414 764,1409 763,1408 766,1405 766,1397 767,1396 767,1390 768,1389 768,1388 770,1386" stroke="black" stroke-width="1" /><polyline fill="none" points="861,1383 860,1384 855,1384 854,1385 853,1385 852,1386 851,1386 850,1387 850,1390 851,1391 851,1394 850,1395 850,1401 849,1402 849,1403 848,1404 849,1405 849,1407 850,1408 850,1410 848,1412 847,1412 846,1413 845,1413 845,1414 844,1415 844,1421 843,1422 843,1423 844,1424 844,1430 842,1432 842,1433 841,1434 841,1442 840,1443 841,1444 841,1445 842,1446 842,1448 841,1449 841,1453 840,1454 840,1456 839,1457 840,1458 840,1459 842,1461 840,1463 839,1463 838,1464 838,1479 836,1481 836,1482 835,1483 836,1484 836,1485 838,1487 838,1489 837,1490 837,1491 836,1492 836,1500 835,1501 835,1505 834,1506 834,1509 835,1510 835,1517 833,1519 833,1521 835,1523 835,1524 836,1525 840,1525 841,1524 842,1524 845,1521 846,1521 847,1520 852,1520 855,1517 855,1513 856,1512 856,1511 857,1510 857,1509 858,1508 858,1504 859,1503 859,1502 860,1501 860,1497 861,1496 868,1496 868,1495 870,1493 874,1497 877,1497 878,1496 878,1495 880,1493 881,1493 882,1494 883,1494 885,1496 885,1497 884,1498 885,1499 885,1500 886,1501 886,1503 887,1504 887,1505 888,1506 888,1507 889,1507 890,1508 890,1514 891,1515 891,1516 892,1517 892,1521 893,1522 893,1523 896,1523 897,1522 898,1522 899,1521 902,1521 903,1520 905,1520 906,1521 912,1521 912,1518 911,1517 911,1509 910,1508 910,1507 909,1506 909,1504 906,1501 907,1500 907,1493 906,1492 902,1492 901,1491 902,1490 905,1490 905,1486 904,1485 900,1485 899,1484 902,1481 902,1480 903,1479 903,1475 902,1474 902,1467 901,1467 900,1466 899,1466 898,1465 898,1457 899,1456 899,1452 898,1451 897,1451 895,1449 897,1447 897,1444 896,1444 893,1441 893,1439 894,1438 894,1434 892,1432 892,1431 893,1430 893,1423 892,1423 890,1421 890,1417 889,1417 888,1416 885,1416 883,1414 884,1413 884,1408 883,1407 883,1399 882,1399 879,1396 879,1395 878,1394 878,1393 877,1392 877,1391 879,1389 879,1384 878,1384 877,1383 871,1383 870,1384 864,1384 863,1383" stroke="black" stroke-width="1" /><polyline fill="none" points="860,1384 861,1383 863,1383 864,1384 870,1384 871,1383 877,1383 879,1385 879,1388 878,1389 878,1390 877,1391 877,1392 878,1393 878,1394 879,1395 879,1396 880,1397 880,1398 881,1398 883,1400 883,1407 884,1408 884,1413 883,1414 885,1416 888,1416 890,1418 890,1421 893,1424 893,1429 892,1430 892,1433 893,1433 894,1434 894,1438 893,1439 893,1442 894,1443 895,1443 897,1445 897,1446 896,1447 896,1448 895,1449 899,1453 899,1455 898,1456 898,1466 900,1466 902,1468 902,1474 903,1475 903,1479 900,1482 900,1483 899,1484 900,1485 904,1485 905,1486 905,1489 904,1490 902,1490 901,1491 902,1492 906,1492 907,1493 907,1500 906,1501 907,1502 907,1503 909,1505 909,1506 910,1507 910,1508 911,1509 911,1517 912,1518 912,1520 911,1521 906,1521 905,1520 903,1520 902,1521 899,1521 898,1522 897,1522 896,1523 894,1523 892,1521 892,1517 891,1516 891,1514 890,1513 890,1508 887,1505 887,1504 886,1503 886,1500 884,1498 885,1497 885,1495 884,1495 882,1493 879,1493 879,1494 876,1497 874,1497 872,1495 872,1494 871,1494 870,1493 867,1496 861,1496 860,1497 860,1501 859,1502 859,1503 858,1504 858,1508 857,1509 857,1510 856,1511 856,1512 855,1513 855,1516 851,1520 847,1520 846,1521 845,1521 844,1522 843,1522 840,1525 837,1525 834,1522 834,1521 833,1520 834,1519 834,1518 835,1517 835,1510 834,1509 834,1506 835,1505 835,1501 836,1500 836,1492 838,1490 838,1487 837,1486 837,1485 835,1483 838,1480 838,1465 841,1462 842,1462 842,1460 839,1457 840,1456 840,1454 841,1453 841,1449 842,1448 842,1446 841,1445 841,1444 840,1443 841,1442 841,1434 844,1431 844,1424 843,1423 843,1422 844,1421 844,1415 847,1412 848,1412 850,1410 850,1408 849,1407 849,1405 848,1404 849,1403 849,1402 850,1401 850,1395 851,1394 851,1390 850,1389 850,1388 853,1385 854,1385 855,1384" stroke="black" stroke-width="1" /><polyline fill="none" points="863,1419 861,1421 861,1422 860,1423 860,1424 859,1425 860,1426 860,1427 861,1427 863,1429 863,1431 859,1435 859,1437 862,1440 862,1442 861,1443 861,1444 860,1445 860,1447 861,1448 861,1452 860,1453 861,1454 861,1455 862,1456 862,1460 859,1463 859,1465 858,1466 858,1473 860,1475 861,1475 862,1476 862,1479 861,1480 861,1481 860,1482 860,1483 861,1484 861,1485 864,1485 864,1484 865,1483 865,1482 867,1480 871,1480 874,1483 877,1483 878,1482 879,1482 882,1479 882,1477 880,1475 880,1473 879,1472 879,1471 878,1470 879,1469 879,1464 876,1461 879,1458 879,1455 878,1454 878,1448 876,1446 876,1443 877,1442 877,1438 874,1435 874,1431 873,1430 872,1430 871,1429 870,1429 867,1426 867,1425 866,1424 866,1420 865,1420 864,1419" stroke="black" stroke-width="1" /><polyline fill="none" points="863,1419 864,1419 866,1421 866,1425 868,1427 868,1428 869,1429 871,1429 872,1430 873,1430 874,1431 874,1435 875,1436 875,1437 877,1439 877,1442 876,1443 876,1446 877,1447 877,1448 878,1449 878,1454 879,1455 879,1457 877,1459 877,1460 876,1461 877,1462 877,1463 879,1465 879,1469 878,1470 879,1471 879,1472 880,1473 880,1475 881,1476 881,1477 882,1478 877,1483 875,1483 873,1481 872,1481 871,1480 867,1480 865,1482 865,1483 863,1485 862,1485 860,1483 860,1482 861,1481 861,1480 862,1479 862,1476 861,1475 860,1475 858,1473 858,1466 859,1465 859,1463 861,1461 862,1461 862,1455 860,1453 861,1452 861,1448 860,1447 860,1445 861,1444 861,1443 862,1442 862,1439 861,1438 860,1438 859,1437 859,1436 863,1432 863,1428 862,1428 859,1425 860,1424 860,1423 861,1422 861,1421" stroke="black" stroke-width="1" /><polyline fill="none" points="681,1368 680,1369 679,1369 679,1370 676,1373 676,1374 675,1375 675,1376 674,1377 674,1379 675,1380 675,1385 673,1387 673,1388 672,1389 673,1390 673,1394 672,1395 672,1396 673,1397 673,1401 670,1404 670,1408 669,1409 669,1410 668,1411 668,1417 666,1419 665,1419 665,1420 664,1421 664,1422 665,1423 665,1425 666,1426 666,1430 664,1432 664,1433 663,1434 664,1435 664,1436 665,1437 665,1440 662,1443 662,1446 663,1447 663,1450 662,1451 662,1452 661,1453 662,1454 662,1455 664,1457 662,1459 661,1459 660,1460 659,1460 658,1461 658,1462 657,1463 657,1469 653,1473 652,1473 651,1474 651,1475 650,1476 650,1479 651,1480 651,1485 650,1486 650,1487 649,1488 649,1493 650,1494 650,1495 651,1496 651,1501 650,1502 650,1504 651,1505 651,1506 652,1507 652,1508 653,1509 657,1509 658,1508 660,1508 664,1512 670,1512 671,1511 673,1511 676,1514 681,1514 684,1517 684,1518 692,1518 693,1517 694,1517 697,1520 701,1520 705,1516 708,1516 708,1514 705,1511 705,1508 703,1506 699,1506 698,1505 698,1504 697,1504 696,1503 692,1503 691,1502 685,1502 683,1500 683,1497 682,1496 679,1496 678,1495 679,1494 679,1492 680,1491 680,1485 679,1484 679,1483 678,1482 678,1480 680,1478 680,1474 679,1473 679,1471 682,1468 682,1467 683,1466 683,1465 684,1464 684,1460 683,1459 683,1458 682,1457 682,1456 681,1456 680,1455 679,1455 678,1454 681,1451 681,1450 685,1446 685,1443 683,1441 684,1440 684,1439 685,1438 685,1428 686,1427 686,1422 689,1419 689,1417 688,1416 688,1406 690,1404 691,1404 692,1403 693,1403 695,1401 695,1398 694,1397 694,1391 693,1390 693,1389 692,1388 693,1387 693,1384 694,1383 694,1380 692,1378 692,1374 691,1373 691,1370 690,1369 689,1369 688,1368" stroke="black" stroke-width="1" /><polyline fill="none" points="681,1368 688,1368 691,1371 691,1373 692,1374 692,1378 694,1380 694,1383 693,1384 693,1387 692,1388 693,1389 693,1390 694,1391 694,1397 695,1398 695,1401 693,1403 692,1403 691,1404 690,1404 688,1406 688,1416 689,1417 689,1418 687,1420 687,1421 686,1422 686,1426 685,1427 685,1438 684,1439 684,1440 683,1441 684,1442 684,1443 685,1444 685,1446 683,1448 682,1448 682,1449 681,1450 681,1451 679,1453 678,1453 678,1455 680,1455 683,1458 683,1459 684,1460 684,1464 683,1465 683,1466 680,1469 680,1470 679,1471 679,1473 680,1474 680,1477 679,1478 679,1479 678,1480 678,1483 680,1485 680,1491 679,1492 679,1494 678,1495 679,1496 682,1496 683,1497 683,1500 685,1502 691,1502 692,1503 696,1503 699,1506 703,1506 705,1508 705,1511 706,1512 706,1513 708,1515 707,1516 705,1516 704,1517 703,1517 700,1520 698,1520 696,1518 695,1518 694,1517 693,1517 692,1518 685,1518 683,1516 683,1515 682,1515 681,1514 677,1514 675,1512 674,1512 673,1511 671,1511 670,1512 665,1512 662,1509 661,1509 660,1508 658,1508 657,1509 654,1509 651,1506 651,1505 650,1504 650,1502 651,1501 651,1495 649,1493 649,1488 651,1486 651,1480 650,1479 650,1476 654,1472 655,1472 657,1470 657,1463 661,1459 663,1459 664,1458 664,1456 661,1453 662,1452 662,1451 663,1450 663,1446 662,1445 662,1444 665,1441 665,1436 663,1434 665,1432 665,1431 666,1430 666,1426 665,1425 665,1423 664,1422 664,1421 667,1418 668,1418 668,1411 670,1409 670,1405 672,1403 672,1402 673,1401 673,1397 672,1396 672,1395 673,1394 673,1390 672,1389 675,1386 675,1380 674,1379 674,1377 675,1376 675,1375 678,1372 678,1371" stroke="black" stroke-width="1" /><polyline fill="none" points="999,1353 998,1354 994,1354 993,1355 992,1355 991,1356 990,1356 989,1357 988,1357 985,1360 985,1363 986,1364 986,1367 985,1368 985,1370 987,1372 987,1376 986,1377 986,1378 987,1379 987,1380 990,1383 989,1384 989,1385 988,1386 989,1387 989,1393 988,1394 988,1395 989,1396 989,1397 994,1402 994,1403 992,1405 992,1407 997,1412 997,1415 999,1417 999,1420 998,1421 998,1422 997,1423 997,1425 1000,1428 1000,1430 999,1431 999,1432 1000,1433 1000,1434 1001,1435 1001,1440 998,1443 996,1443 995,1442 995,1441 996,1440 996,1437 995,1436 992,1436 991,1435 992,1434 992,1429 991,1429 990,1428 987,1428 986,1427 986,1426 987,1425 987,1424 988,1423 988,1422 989,1421 989,1418 988,1417 984,1417 983,1416 983,1411 982,1411 981,1410 979,1410 978,1409 978,1408 979,1407 979,1406 980,1405 980,1403 976,1399 977,1398 977,1395 976,1395 975,1394 974,1394 973,1393 972,1393 971,1394 967,1394 965,1392 967,1390 968,1390 969,1389 970,1389 970,1386 969,1386 968,1385 964,1385 963,1384 963,1383 964,1382 964,1376 963,1375 963,1374 962,1373 962,1371 961,1370 960,1370 958,1368 958,1366 957,1366 956,1365 950,1365 949,1366 948,1366 947,1367 945,1367 944,1368 943,1368 942,1369 940,1369 939,1370 938,1370 935,1373 936,1374 936,1378 935,1379 935,1380 934,1381 934,1382 933,1383 934,1384 934,1385 936,1387 936,1393 937,1394 937,1395 939,1397 939,1400 938,1401 939,1402 939,1403 940,1404 940,1412 941,1413 941,1414 942,1415 942,1420 944,1422 944,1424 943,1425 943,1426 942,1427 942,1429 943,1430 943,1431 945,1433 945,1438 946,1439 946,1446 948,1448 948,1449 950,1449 952,1451 952,1453 951,1454 951,1459 952,1460 952,1461 955,1464 955,1473 956,1474 956,1480 957,1481 957,1482 959,1484 959,1487 960,1488 960,1489 962,1491 963,1491 964,1492 965,1492 967,1494 965,1496 965,1497 964,1498 964,1502 965,1503 965,1504 966,1504 967,1505 985,1505 986,1504 986,1501 985,1500 986,1499 986,1497 984,1495 986,1493 986,1490 985,1490 983,1488 983,1483 985,1481 985,1479 984,1479 983,1478 982,1478 981,1477 979,1477 978,1476 978,1475 979,1474 979,1470 977,1468 977,1467 978,1466 978,1460 976,1458 976,1457 977,1456 977,1450 976,1450 975,1449 974,1449 973,1450 970,1450 968,1448 969,1447 969,1446 970,1445 970,1443 969,1442 969,1441 968,1440 968,1437 967,1436 967,1435 968,1434 969,1435 974,1435 976,1437 976,1439 975,1440 976,1441 976,1442 977,1443 978,1443 979,1444 982,1444 984,1446 984,1447 985,1448 985,1449 986,1449 987,1450 988,1450 990,1452 990,1453 991,1454 991,1455 993,1457 996,1457 998,1459 998,1461 997,1462 997,1464 998,1465 998,1466 1001,1469 1001,1470 1002,1471 1005,1471 1006,1472 1006,1481 1007,1482 1007,1483 1008,1484 1009,1484 1010,1485 1011,1485 1015,1489 1015,1490 1017,1492 1019,1492 1023,1496 1023,1497 1026,1497 1027,1496 1034,1496 1035,1495 1037,1495 1038,1494 1039,1494 1040,1493 1041,1493 1042,1492 1042,1488 1040,1486 1040,1477 1038,1475 1036,1475 1034,1473 1034,1471 1035,1470 1035,1467 1034,1466 1034,1463 1033,1463 1032,1462 1031,1463 1030,1463 1029,1464 1029,1465 1028,1466 1029,1467 1032,1467 1033,1466 1034,1466 1035,1467 1035,1470 1034,1471 1034,1473 1035,1474 1035,1475 1038,1475 1040,1477 1040,1486 1041,1487 1041,1488 1042,1489 1042,1491 1039,1494 1038,1494 1037,1495 1035,1495 1034,1496 1027,1496 1026,1497 1024,1497 1022,1495 1022,1494 1021,1493 1020,1493 1019,1492 1017,1492 1015,1490 1015,1489 1014,1488 1014,1487 1013,1486 1012,1486 1011,1485 1010,1485 1006,1481 1006,1472 1005,1471 1003,1471 998,1466 998,1465 997,1464 997,1462 998,1461 998,1458 997,1458 996,1457 993,1457 991,1455 991,1454 990,1453 990,1452 988,1450 987,1450 984,1447 984,1446 982,1444 979,1444 975,1440 976,1439 976,1436 975,1436 974,1435 969,1435 968,1434 967,1435 967,1437 968,1438 968,1440 969,1441 969,1442 970,1443 970,1445 969,1446 969,1447 968,1448 970,1450 973,1450 974,1449 975,1449 977,1451 977,1455 976,1456 976,1459 977,1459 978,1460 978,1466 977,1467 977,1468 978,1469 978,1470 979,1471 979,1474 978,1475 978,1477 981,1477 982,1478 983,1478 985,1480 984,1481 984,1482 983,1483 983,1488 986,1491 986,1492 985,1493 985,1494 984,1495 985,1496 985,1497 986,1498 986,1499 985,1500 986,1501 986,1503 984,1505 967,1505 964,1502 964,1498 967,1495 967,1493 966,1493 965,1492 964,1492 959,1487 959,1483 956,1480 956,1474 955,1473 955,1463 954,1463 952,1461 952,1460 951,1459 951,1454 952,1453 952,1450 951,1450 950,1449 949,1449 947,1447 947,1446 946,1445 946,1439 945,1438 945,1433 944,1432 944,1431 942,1429 942,1427 943,1426 943,1425 944,1424 944,1422 943,1421 943,1420 942,1419 942,1414 940,1412 940,1403 938,1401 939,1400 939,1396 936,1393 936,1387 935,1386 935,1385 933,1383 935,1381 935,1379 936,1378 936,1374 935,1373 937,1371 938,1371 940,1369 942,1369 943,1368 944,1368 945,1367 947,1367 948,1366 949,1366 950,1365 956,1365 958,1367 958,1368 962,1372 962,1373 963,1374 963,1375 964,1376 964,1382 963,1383 963,1385 968,1385 970,1387 970,1388 968,1390 967,1390 965,1392 966,1393 966,1394 971,1394 972,1393 973,1393 974,1394 975,1394 977,1396 977,1398 976,1399 977,1400 977,1401 980,1404 980,1405 979,1406 979,1407 978,1408 978,1410 981,1410 983,1412 983,1417 988,1417 989,1418 989,1421 988,1422 988,1423 986,1425 986,1427 987,1428 990,1428 992,1430 992,1434 991,1435 992,1436 995,1436 996,1437 996,1440 995,1441 995,1442 996,1443 999,1443 1001,1441 1001,1434 999,1432 999,1431 1000,1430 1000,1427 999,1426 998,1426 997,1425 997,1423 999,1421 999,1416 997,1414 997,1411 992,1406 993,1405 993,1404 994,1403 994,1401 993,1400 992,1400 990,1398 990,1397 988,1395 988,1394 989,1393 989,1387 988,1386 990,1384 990,1382 986,1378 986,1377 987,1376 987,1371 985,1369 985,1368 986,1367 986,1363 985,1362 985,1361 990,1356 991,1356 992,1355 993,1355 994,1354 998,1354 999,1353 1001,1353 1003,1355 1003,1359 1004,1360 1004,1361 1005,1362 1005,1367 1006,1368 1006,1369 1007,1370 1007,1373 1008,1374 1011,1374 1013,1376 1013,1377 1012,1378 1011,1378 1011,1379 1010,1380 1010,1381 1011,1382 1011,1383 1012,1384 1012,1388 1011,1389 1011,1391 1012,1392 1012,1393 1014,1393 1017,1396 1017,1400 1016,1401 1016,1402 1017,1403 1017,1409 1018,1410 1018,1411 1019,1412 1019,1416 1018,1417 1019,1418 1019,1419 1020,1420 1021,1420 1022,1421 1022,1423 1023,1424 1023,1427 1022,1428 1022,1429 1023,1430 1023,1431 1025,1433 1025,1438 1026,1438 1027,1439 1027,1443 1028,1444 1028,1446 1027,1447 1027,1448 1028,1449 1028,1450 1029,1451 1029,1454 1030,1455 1030,1456 1036,1462 1036,1465 1036,1462 1035,1461 1035,1460 1029,1454 1029,1451 1028,1450 1028,1449 1027,1448 1027,1447 1028,1446 1028,1443 1027,1442 1027,1439 1025,1437 1025,1433 1024,1432 1024,1431 1022,1429 1022,1428 1023,1427 1023,1424 1022,1423 1022,1421 1018,1417 1019,1416 1019,1411 1017,1409 1017,1403 1016,1402 1016,1401 1017,1400 1017,1395 1016,1394 1015,1394 1014,1393 1013,1393 1011,1391 1011,1389 1012,1388 1012,1383 1010,1381 1010,1380 1013,1377 1013,1375 1012,1375 1011,1374 1008,1374 1007,1373 1007,1370 1006,1369 1006,1368 1005,1367 1005,1362 1004,1361 1004,1360 1003,1359 1003,1354 1002,1354 1001,1353" stroke="black" stroke-width="1" /><polyline fill="none" points="1074,1327 1073,1328 1061,1328 1060,1329 1059,1329 1058,1330 1058,1331 1057,1332 1057,1334 1056,1335 1052,1335 1050,1337 1050,1343 1051,1344 1051,1345 1050,1346 1049,1346 1047,1348 1047,1349 1046,1350 1047,1351 1047,1352 1048,1353 1048,1358 1047,1359 1047,1360 1046,1361 1046,1363 1048,1365 1050,1365 1051,1366 1052,1366 1053,1367 1053,1368 1049,1372 1049,1373 1048,1374 1049,1375 1049,1377 1050,1378 1050,1379 1051,1379 1052,1380 1052,1385 1053,1386 1053,1387 1058,1387 1060,1389 1060,1390 1061,1391 1061,1392 1062,1392 1063,1393 1063,1398 1064,1399 1064,1400 1065,1400 1067,1402 1067,1403 1066,1404 1066,1405 1065,1406 1065,1408 1066,1409 1066,1410 1067,1411 1068,1411 1069,1412 1071,1412 1072,1413 1075,1413 1077,1415 1077,1416 1076,1417 1076,1419 1075,1420 1075,1422 1076,1423 1076,1424 1077,1424 1078,1425 1078,1429 1079,1430 1079,1431 1082,1434 1082,1435 1081,1436 1081,1438 1080,1439 1080,1441 1081,1442 1081,1443 1084,1443 1087,1446 1087,1447 1090,1447 1092,1449 1092,1454 1093,1455 1093,1456 1097,1456 1099,1458 1099,1459 1100,1460 1100,1461 1102,1463 1105,1463 1106,1462 1108,1462 1109,1463 1113,1463 1114,1462 1117,1462 1118,1461 1119,1461 1120,1462 1124,1462 1127,1459 1135,1459 1138,1456 1141,1456 1142,1455 1143,1455 1144,1454 1144,1449 1143,1448 1143,1446 1145,1444 1147,1444 1147,1439 1148,1438 1148,1436 1151,1433 1152,1433 1152,1430 1151,1430 1150,1429 1148,1429 1147,1428 1145,1428 1143,1426 1144,1425 1144,1421 1143,1420 1143,1418 1142,1417 1142,1415 1143,1414 1143,1411 1140,1408 1140,1407 1139,1406 1139,1404 1138,1403 1138,1402 1137,1401 1134,1401 1133,1402 1132,1402 1132,1403 1130,1405 1128,1405 1127,1406 1126,1406 1125,1407 1124,1407 1123,1408 1123,1411 1122,1412 1122,1413 1121,1414 1121,1415 1122,1416 1122,1418 1123,1419 1123,1420 1125,1422 1125,1423 1126,1423 1129,1426 1129,1427 1128,1428 1128,1429 1127,1430 1127,1431 1128,1432 1128,1433 1131,1436 1131,1437 1132,1438 1132,1441 1129,1444 1128,1444 1127,1445 1126,1445 1124,1447 1121,1447 1120,1448 1119,1448 1119,1449 1117,1451 1112,1451 1108,1447 1108,1443 1107,1442 1105,1442 1104,1441 1105,1440 1105,1435 1104,1435 1103,1434 1103,1427 1102,1427 1101,1426 1100,1426 1099,1427 1097,1427 1096,1426 1096,1418 1094,1416 1094,1413 1093,1412 1092,1412 1091,1411 1090,1411 1089,1410 1090,1409 1090,1405 1089,1405 1086,1402 1086,1398 1085,1397 1081,1397 1080,1396 1080,1390 1079,1389 1078,1389 1077,1388 1078,1387 1078,1386 1079,1385 1079,1382 1078,1382 1077,1381 1074,1381 1073,1380 1073,1375 1072,1374 1069,1374 1068,1375 1066,1375 1065,1376 1064,1376 1063,1375 1063,1372 1064,1371 1064,1368 1063,1367 1063,1366 1062,1365 1062,1364 1063,1363 1063,1361 1064,1360 1064,1352 1065,1351 1065,1349 1066,1348 1066,1347 1067,1346 1067,1342 1069,1340 1070,1340 1071,1341 1072,1341 1073,1342 1076,1342 1077,1341 1077,1340 1081,1336 1082,1337 1083,1337 1084,1338 1089,1338 1091,1340 1091,1343 1090,1344 1090,1345 1089,1346 1089,1349 1090,1350 1091,1350 1093,1352 1093,1353 1094,1354 1094,1355 1095,1356 1095,1358 1096,1359 1096,1360 1098,1362 1102,1362 1103,1361 1104,1361 1105,1360 1106,1360 1107,1359 1109,1359 1110,1358 1111,1358 1112,1357 1112,1352 1111,1351 1112,1350 1112,1349 1113,1348 1113,1346 1112,1345 1112,1344 1115,1341 1115,1338 1114,1337 1109,1337 1108,1336 1108,1335 1107,1334 1105,1334 1104,1335 1103,1335 1101,1337 1099,1337 1098,1336 1098,1334 1099,1333 1099,1328 1098,1328 1097,1327 1096,1328 1095,1328 1092,1331 1090,1331 1089,1330 1085,1330 1084,1329 1083,1329 1082,1328 1081,1328 1080,1327" stroke="black" stroke-width="1" /><polyline fill="none" points="1073,1328 1074,1327 1080,1327 1081,1328 1082,1328 1083,1329 1084,1329 1085,1330 1089,1330 1090,1331 1093,1331 1097,1327 1099,1329 1099,1333 1098,1334 1098,1336 1099,1337 1102,1337 1105,1334 1107,1334 1108,1335 1108,1336 1109,1337 1114,1337 1115,1338 1115,1340 1113,1342 1113,1343 1112,1344 1112,1345 1113,1346 1113,1348 1112,1349 1112,1350 1111,1351 1112,1352 1112,1356 1109,1359 1107,1359 1106,1360 1105,1360 1104,1361 1103,1361 1102,1362 1099,1362 1095,1358 1095,1356 1094,1355 1094,1354 1093,1353 1093,1352 1091,1350 1090,1350 1089,1349 1089,1346 1090,1345 1090,1344 1091,1343 1091,1339 1090,1339 1089,1338 1084,1338 1083,1337 1082,1337 1081,1336 1080,1337 1079,1337 1078,1338 1078,1339 1075,1342 1073,1342 1072,1341 1071,1341 1070,1340 1069,1340 1067,1342 1067,1346 1066,1347 1066,1348 1065,1349 1065,1351 1064,1352 1064,1360 1063,1361 1063,1363 1062,1364 1062,1365 1063,1366 1063,1367 1064,1368 1064,1371 1063,1372 1063,1376 1065,1376 1066,1375 1068,1375 1069,1374 1072,1374 1073,1375 1073,1381 1077,1381 1079,1383 1079,1385 1077,1387 1077,1388 1080,1391 1080,1397 1085,1397 1086,1398 1086,1402 1087,1403 1087,1404 1088,1404 1090,1406 1090,1408 1089,1409 1089,1411 1091,1411 1094,1414 1094,1415 1092,1417 1092,1418 1092,1417 1093,1416 1094,1416 1095,1417 1094,1418 1095,1417 1096,1418 1096,1426 1097,1427 1099,1427 1100,1426 1101,1426 1103,1428 1103,1434 1105,1436 1105,1440 1104,1441 1105,1442 1107,1442 1108,1443 1108,1447 1109,1448 1109,1449 1110,1450 1111,1450 1112,1451 1118,1451 1118,1450 1121,1447 1125,1447 1128,1444 1129,1444 1130,1443 1131,1443 1131,1442 1132,1441 1132,1438 1131,1437 1131,1435 1127,1431 1127,1430 1128,1429 1128,1428 1129,1427 1129,1425 1128,1424 1127,1424 1124,1421 1124,1420 1122,1418 1122,1416 1121,1415 1121,1414 1122,1413 1122,1412 1123,1411 1123,1409 1126,1406 1127,1406 1128,1405 1131,1405 1131,1404 1134,1401 1137,1401 1138,1402 1138,1403 1139,1404 1139,1406 1140,1407 1140,1408 1143,1411 1143,1414 1142,1415 1142,1417 1143,1418 1143,1420 1144,1421 1144,1425 1143,1426 1145,1428 1147,1428 1148,1429 1150,1429 1152,1431 1152,1432 1150,1434 1149,1434 1149,1435 1148,1436 1148,1438 1147,1439 1147,1443 1146,1444 1145,1444 1144,1445 1143,1445 1143,1448 1144,1449 1144,1453 1141,1456 1138,1456 1137,1457 1136,1457 1134,1459 1126,1459 1126,1460 1124,1462 1120,1462 1119,1461 1118,1461 1117,1462 1114,1462 1113,1463 1109,1463 1108,1462 1106,1462 1105,1463 1103,1463 1099,1459 1099,1457 1098,1457 1097,1456 1094,1456 1092,1454 1092,1448 1091,1448 1090,1447 1088,1447 1086,1445 1086,1444 1085,1444 1084,1443 1082,1443 1080,1441 1080,1439 1081,1438 1081,1436 1082,1435 1082,1433 1078,1429 1078,1425 1075,1422 1075,1420 1076,1419 1076,1417 1077,1416 1077,1414 1076,1414 1075,1413 1072,1413 1071,1412 1069,1412 1065,1408 1065,1406 1066,1405 1066,1404 1067,1403 1067,1401 1066,1401 1063,1398 1063,1393 1060,1390 1060,1389 1058,1387 1054,1387 1052,1385 1052,1380 1049,1377 1049,1375 1048,1374 1053,1369 1053,1367 1052,1366 1051,1366 1050,1365 1048,1365 1046,1363 1046,1361 1047,1360 1047,1359 1048,1358 1048,1352 1046,1350 1051,1345 1051,1343 1050,1342 1050,1337 1052,1335 1056,1335 1057,1334 1057,1332 1061,1328" stroke="black" stroke-width="1" /><polyline fill="none" points="513,1303 512,1304 511,1304 510,1305 510,1308 511,1309 511,1311 510,1312 507,1312 505,1314 505,1318 508,1321 508,1323 507,1324 505,1324 504,1323 503,1323 502,1324 501,1324 498,1327 497,1327 496,1328 495,1328 493,1330 493,1333 492,1334 491,1334 490,1335 489,1335 487,1337 487,1340 488,1341 488,1342 489,1343 488,1344 486,1344 485,1345 484,1345 483,1346 483,1347 480,1350 475,1350 470,1355 470,1360 469,1361 465,1361 464,1362 463,1362 463,1366 462,1367 460,1367 459,1368 458,1368 458,1373 457,1374 454,1374 453,1375 452,1375 451,1376 451,1377 450,1378 451,1379 451,1380 452,1381 452,1382 449,1385 448,1385 447,1386 446,1386 446,1387 445,1388 445,1389 442,1392 441,1392 439,1394 439,1397 436,1400 436,1403 435,1404 433,1404 432,1403 431,1403 430,1402 429,1402 427,1404 427,1405 426,1406 426,1407 425,1408 426,1409 426,1414 427,1415 427,1416 430,1419 431,1419 433,1421 434,1421 435,1422 436,1422 438,1424 439,1424 440,1425 446,1425 447,1424 447,1419 450,1416 450,1413 454,1409 455,1409 457,1407 457,1406 459,1404 463,1404 466,1401 467,1401 468,1402 474,1402 475,1401 477,1401 481,1397 482,1397 484,1399 484,1414 485,1415 485,1416 483,1418 481,1418 480,1419 479,1419 479,1420 478,1421 479,1422 479,1423 480,1424 480,1427 478,1429 477,1429 477,1434 476,1435 477,1436 477,1437 479,1439 479,1441 480,1442 480,1445 482,1447 483,1447 484,1448 485,1448 486,1449 488,1449 489,1450 494,1450 494,1447 495,1446 495,1441 494,1440 494,1439 496,1437 496,1436 497,1435 497,1433 501,1429 501,1428 502,1427 502,1422 503,1421 503,1420 504,1419 504,1418 505,1417 505,1414 504,1413 504,1412 506,1410 506,1406 508,1404 509,1404 510,1403 511,1403 512,1402 512,1398 514,1396 514,1393 515,1392 515,1391 517,1389 518,1389 521,1386 521,1380 520,1379 520,1375 523,1372 524,1372 525,1371 525,1367 524,1366 524,1365 525,1364 525,1363 526,1362 526,1355 528,1353 528,1352 531,1349 531,1348 532,1347 532,1342 530,1340 532,1338 532,1337 533,1336 533,1331 532,1330 532,1329 534,1327 534,1324 537,1321 537,1315 536,1314 536,1313 534,1311 533,1311 532,1310 530,1310 529,1309 528,1309 527,1308 526,1308 525,1307 523,1307 522,1306 521,1306 520,1305 519,1305 518,1304 515,1304 514,1303" stroke="black" stroke-width="1" /><polyline fill="none" points="513,1303 514,1303 515,1304 518,1304 519,1305 520,1305 521,1306 522,1306 523,1307 525,1307 526,1308 527,1308 528,1309 529,1309 530,1310 532,1310 537,1315 537,1320 535,1322 535,1323 534,1324 534,1326 533,1327 533,1328 532,1329 532,1330 533,1331 533,1336 531,1338 531,1339 530,1340 531,1341 531,1342 532,1343 532,1347 529,1350 529,1351 527,1353 527,1354 526,1355 526,1362 525,1363 525,1364 524,1365 524,1366 525,1367 525,1370 522,1373 521,1373 521,1374 520,1375 520,1379 521,1380 521,1386 519,1388 518,1388 515,1391 515,1392 514,1393 514,1395 513,1396 513,1397 512,1398 512,1401 509,1404 508,1404 506,1406 506,1409 504,1411 504,1414 505,1415 505,1417 504,1418 504,1419 503,1420 503,1421 502,1422 502,1427 498,1431 498,1432 497,1433 497,1435 495,1437 495,1438 494,1439 494,1440 495,1441 495,1446 494,1447 494,1449 493,1450 489,1450 488,1449 486,1449 485,1448 484,1448 483,1447 482,1447 480,1445 480,1442 479,1441 479,1438 476,1435 477,1434 477,1430 479,1428 480,1428 480,1423 478,1421 481,1418 484,1418 485,1417 485,1415 484,1414 484,1398 483,1397 481,1397 480,1398 479,1398 476,1401 475,1401 474,1402 469,1402 468,1401 465,1401 462,1404 459,1404 453,1410 452,1410 451,1411 451,1412 450,1413 450,1415 448,1417 448,1418 447,1419 447,1423 445,1425 440,1425 438,1423 437,1423 436,1422 435,1422 433,1420 432,1420 426,1414 426,1409 425,1408 426,1407 426,1406 427,1405 427,1404 429,1402 430,1402 431,1403 432,1403 433,1404 436,1404 436,1401 438,1399 438,1398 439,1397 439,1394 441,1392 443,1392 444,1391 444,1390 445,1389 445,1388 448,1385 449,1385 450,1384 451,1384 452,1383 452,1380 450,1378 454,1374 458,1374 458,1369 460,1367 463,1367 463,1363 465,1361 469,1361 470,1360 470,1355 471,1354 472,1354 473,1353 473,1352 475,1350 481,1350 482,1349 482,1348 486,1344 489,1344 489,1342 487,1340 487,1337 489,1335 490,1335 491,1334 493,1334 493,1330 495,1328 496,1328 497,1327 498,1327 500,1325 501,1325 503,1323 504,1323 505,1324 508,1324 508,1320 505,1317 505,1314 507,1312 511,1312 511,1309 510,1308 510,1306" stroke="black" stroke-width="1" /><polyline fill="none" points="503,1344 502,1345 502,1348 503,1349 503,1351 501,1353 500,1353 499,1354 498,1354 497,1355 496,1355 496,1356 495,1357 495,1358 494,1359 494,1360 492,1362 490,1362 488,1364 488,1367 486,1369 486,1371 483,1374 483,1375 482,1376 482,1377 481,1378 481,1380 480,1381 480,1387 482,1389 483,1389 485,1391 485,1392 486,1393 488,1393 489,1394 491,1394 492,1393 492,1389 490,1387 492,1385 493,1385 494,1384 495,1384 497,1382 498,1382 498,1376 496,1374 496,1372 499,1369 500,1369 501,1368 501,1366 503,1364 507,1364 507,1359 506,1358 509,1355 511,1355 512,1354 512,1352 511,1351 511,1350 510,1349 510,1346 509,1346 508,1345 507,1345 506,1344" stroke="black" stroke-width="1" /><polyline fill="none" points="502,1345 503,1344 506,1344 507,1345 508,1345 510,1347 510,1349 511,1350 511,1351 512,1352 512,1354 511,1355 509,1355 508,1356 507,1356 507,1357 506,1358 507,1359 507,1363 506,1364 503,1364 501,1366 501,1368 500,1369 499,1369 498,1370 497,1370 496,1371 496,1374 497,1375 497,1376 498,1377 498,1381 496,1383 495,1383 493,1385 492,1385 490,1387 491,1388 491,1389 492,1390 492,1392 490,1394 489,1394 488,1393 487,1393 483,1389 482,1389 480,1387 480,1381 481,1380 481,1378 482,1377 482,1376 486,1372 486,1369 488,1367 488,1364 490,1362 493,1362 493,1361 494,1360 494,1359 495,1358 495,1357 498,1354 499,1354 500,1353 502,1353 503,1352 503,1349 502,1348" stroke="black" stroke-width="1" /><polyline fill="none" points="255,1008 254,1009 253,1009 252,1010 251,1010 248,1013 247,1013 246,1014 245,1014 245,1015 244,1016 245,1017 245,1019 244,1020 243,1020 242,1021 241,1021 241,1022 238,1025 235,1025 234,1026 233,1026 233,1027 232,1028 232,1030 230,1032 229,1032 228,1033 226,1033 225,1034 220,1034 219,1033 215,1033 211,1029 211,1026 208,1023 208,1022 204,1022 202,1020 202,1016 201,1016 200,1015 196,1015 195,1016 194,1016 193,1017 191,1017 190,1018 184,1018 184,1020 183,1021 183,1022 184,1023 184,1027 185,1028 185,1029 186,1029 189,1032 190,1032 191,1033 193,1033 194,1034 194,1037 191,1040 191,1041 190,1042 190,1046 191,1047 191,1049 192,1050 192,1051 194,1053 194,1056 193,1057 196,1060 198,1060 200,1062 200,1063 199,1064 197,1064 195,1066 195,1067 194,1068 194,1069 191,1072 190,1072 190,1073 189,1074 189,1075 187,1077 186,1077 185,1078 179,1078 178,1079 177,1079 177,1080 176,1081 176,1084 173,1087 172,1087 172,1088 171,1089 171,1092 172,1093 178,1093 179,1092 181,1092 182,1091 186,1091 188,1089 190,1089 191,1090 192,1090 193,1091 194,1091 195,1092 199,1092 200,1091 203,1091 204,1092 210,1092 212,1094 213,1094 216,1097 216,1098 217,1099 217,1100 220,1103 220,1105 221,1106 221,1107 222,1107 223,1108 224,1108 225,1109 225,1115 226,1116 226,1117 227,1118 227,1119 228,1120 228,1121 229,1122 229,1123 230,1123 231,1124 235,1124 237,1122 238,1122 239,1121 240,1121 240,1117 239,1116 239,1104 240,1103 240,1102 241,1101 241,1100 242,1099 242,1096 244,1094 245,1094 247,1092 247,1088 246,1087 245,1087 244,1086 243,1086 242,1085 242,1084 244,1082 246,1084 247,1084 249,1086 257,1086 257,1085 260,1082 261,1082 262,1083 266,1083 269,1080 276,1080 277,1081 280,1081 281,1080 283,1080 284,1079 290,1079 291,1078 291,1074 289,1072 286,1072 284,1070 284,1069 281,1069 280,1070 276,1070 275,1069 274,1070 272,1070 271,1069 270,1069 269,1068 268,1069 266,1069 263,1066 263,1061 255,1061 254,1060 254,1056 255,1055 255,1054 256,1053 256,1051 257,1050 257,1048 258,1047 258,1046 259,1045 259,1042 258,1041 258,1040 257,1039 257,1038 256,1037 256,1036 257,1035 257,1028 259,1026 260,1026 260,1022 258,1020 258,1019 259,1018 259,1015 260,1014 260,1010 259,1010 258,1009 257,1009 256,1008" stroke="black" stroke-width="1" /><polyline fill="none" points="254,1009 255,1008 256,1008 257,1009 258,1009 260,1011 260,1014 259,1015 259,1018 258,1019 258,1021 260,1023 260,1025 257,1028 257,1034 256,1035 256,1038 258,1040 258,1041 259,1042 259,1045 258,1046 258,1047 257,1048 257,1050 256,1051 256,1053 254,1055 254,1060 255,1061 262,1061 263,1062 263,1066 264,1067 264,1068 265,1069 268,1069 269,1068 271,1070 274,1070 275,1069 276,1070 281,1070 282,1069 283,1069 285,1071 285,1072 289,1072 291,1074 291,1078 290,1079 284,1079 283,1080 281,1080 280,1081 277,1081 276,1080 269,1080 268,1081 267,1081 265,1083 262,1083 261,1082 260,1082 259,1083 258,1083 258,1084 256,1086 250,1086 249,1085 248,1085 246,1083 245,1083 244,1082 243,1083 242,1083 242,1086 244,1086 245,1087 246,1087 247,1088 247,1092 245,1094 244,1094 242,1096 242,1099 241,1100 241,1101 240,1102 240,1103 239,1104 239,1116 240,1117 240,1120 238,1122 237,1122 236,1123 235,1123 234,1124 231,1124 228,1121 228,1120 227,1119 227,1117 225,1115 225,1109 224,1108 223,1108 220,1105 220,1102 216,1098 216,1097 215,1096 215,1095 214,1095 212,1093 211,1093 210,1092 204,1092 203,1091 199,1091 198,1092 195,1092 194,1091 193,1091 192,1090 191,1090 190,1089 188,1089 187,1090 186,1090 185,1091 182,1091 181,1092 179,1092 178,1093 172,1093 171,1092 171,1089 174,1086 175,1086 176,1085 176,1081 179,1078 185,1078 186,1077 187,1077 189,1075 189,1074 192,1071 193,1071 193,1070 195,1068 195,1066 197,1064 199,1064 200,1063 200,1061 199,1061 198,1060 197,1060 196,1059 195,1059 193,1057 194,1056 194,1052 191,1049 191,1047 190,1046 190,1042 194,1038 194,1034 193,1033 191,1033 188,1030 187,1030 184,1027 184,1023 183,1022 183,1021 184,1020 184,1019 185,1018 190,1018 191,1017 193,1017 194,1016 195,1016 196,1015 200,1015 202,1017 202,1020 203,1021 203,1022 207,1022 209,1024 209,1025 211,1027 211,1029 212,1030 212,1031 214,1033 219,1033 220,1034 225,1034 226,1033 228,1033 229,1032 230,1032 231,1031 232,1031 232,1028 235,1025 238,1025 239,1024 240,1024 240,1023 243,1020 245,1020 245,1017 244,1016 247,1013 248,1013 249,1012 250,1012 253,1009" stroke="black" stroke-width="1" /><polyline fill="none" points="147,755 146,756 144,756 143,757 142,757 142,758 141,759 141,764 140,765 141,766 141,767 143,769 143,774 146,777 146,782 145,783 146,784 146,785 147,786 147,789 146,790 146,791 145,792 146,793 146,794 147,794 148,795 149,795 150,796 151,796 152,797 152,798 150,800 147,800 146,801 145,801 145,802 144,803 145,804 145,805 147,805 148,806 148,807 147,808 146,808 145,807 144,808 143,808 142,807 140,807 140,811 139,812 139,813 138,814 134,814 133,815 132,815 130,813 129,813 128,812 124,816 121,816 117,812 116,812 115,811 113,813 113,814 114,815 114,816 113,817 110,817 109,816 109,815 108,815 107,814 105,814 104,815 103,815 103,816 102,817 102,821 103,822 103,823 104,824 109,824 113,828 114,828 115,829 117,829 118,828 124,828 125,827 126,827 127,828 127,829 128,830 128,831 129,832 133,832 134,831 136,833 137,833 138,834 141,834 142,833 144,835 146,835 147,836 151,836 153,834 154,834 155,833 156,834 156,835 157,836 157,837 156,838 151,838 149,840 149,841 148,842 148,843 146,845 146,849 147,850 147,854 148,855 148,856 149,857 149,859 148,860 148,861 147,862 147,867 146,868 146,869 145,870 145,873 146,874 146,875 147,876 147,877 148,877 149,878 152,878 155,875 156,875 156,874 157,873 157,870 159,868 164,868 165,867 166,867 167,866 167,862 166,862 164,860 164,859 166,857 168,857 168,856 171,853 172,853 172,850 174,848 176,848 177,847 178,847 181,850 181,851 182,852 182,853 184,853 185,852 186,852 190,848 192,848 194,850 197,850 198,851 199,851 200,852 202,852 203,851 204,851 205,850 208,853 215,853 216,854 222,854 223,853 223,852 224,851 224,849 223,849 222,848 219,848 218,847 218,844 217,844 216,843 214,843 212,841 212,840 211,839 211,837 210,836 210,827 208,825 208,822 207,821 206,821 205,822 203,822 202,823 201,823 199,825 198,825 197,824 197,823 193,823 191,821 191,820 190,819 190,818 192,816 195,816 196,815 197,815 198,814 198,813 199,812 199,811 202,808 202,807 203,806 203,804 206,801 208,801 209,800 209,797 214,792 214,791 215,790 215,789 220,784 220,783 221,782 221,779 219,777 218,777 217,776 216,776 215,775 214,776 213,776 212,777 207,777 206,778 205,778 205,782 204,783 198,783 197,784 196,784 196,786 195,787 194,787 193,786 192,786 191,785 189,785 187,787 187,789 186,790 184,790 182,788 182,787 181,787 180,786 177,786 176,787 172,787 171,788 169,788 167,786 167,784 169,782 169,780 168,779 166,779 164,777 165,776 165,773 164,772 163,772 162,771 161,771 160,770 161,769 161,763 160,762 159,762 158,761 157,761 155,759 155,757 154,756 153,756 152,755" stroke="black" stroke-width="1" /><polyline fill="none" points="146,756 147,755 152,755 153,756 154,756 155,757 155,759 156,760 156,761 158,761 159,762 160,762 161,763 161,768 160,769 160,771 162,771 165,774 165,776 164,777 165,778 165,779 168,779 169,780 169,782 167,784 167,787 168,787 169,788 171,788 172,787 176,787 177,786 180,786 183,789 183,790 187,790 187,787 189,785 191,785 192,786 193,786 194,787 196,787 196,785 198,783 205,783 205,779 207,777 213,777 215,775 216,776 217,776 218,777 219,777 221,779 221,782 218,785 218,786 215,789 215,790 210,795 210,796 209,797 209,799 207,801 206,801 205,802 204,802 204,803 203,804 203,806 200,809 200,810 199,811 199,812 195,816 192,816 190,818 190,819 191,820 191,821 192,822 192,823 196,823 198,825 200,825 203,822 205,822 206,821 207,821 208,822 208,825 209,826 209,827 210,828 210,836 211,837 211,839 212,840 212,841 213,842 213,843 216,843 218,845 218,847 219,848 222,848 224,850 224,851 221,854 216,854 215,853 209,853 207,851 206,851 205,850 204,851 203,851 202,852 200,852 199,851 198,851 197,850 195,850 194,849 193,849 192,848 190,848 189,849 188,849 184,853 183,853 181,851 181,850 180,849 180,848 179,848 178,847 177,847 176,848 174,848 172,850 172,852 170,854 169,854 169,855 167,857 166,857 165,858 164,858 164,861 165,861 167,863 167,865 164,868 159,868 157,870 157,873 154,876 153,876 151,878 149,878 146,875 146,874 145,873 145,870 146,869 146,868 147,867 147,862 149,860 149,856 147,854 147,850 146,849 146,846 148,844 148,842 149,841 149,840 151,838 157,838 157,836 156,835 156,834 155,833 154,834 153,834 152,835 151,835 150,836 147,836 146,835 145,835 144,834 143,834 142,833 141,834 138,834 136,832 135,832 134,831 133,832 129,832 128,831 128,830 127,829 127,828 126,827 125,827 124,828 118,828 117,829 115,829 111,825 110,825 109,824 105,824 102,821 102,817 105,814 107,814 110,817 114,817 114,815 113,814 113,813 115,811 119,815 120,815 121,816 125,816 126,815 126,814 128,812 131,815 133,815 134,814 138,814 140,812 140,808 141,807 142,808 144,808 145,807 146,808 148,808 148,805 146,805 144,803 147,800 150,800 151,799 152,799 152,797 151,796 150,796 149,795 148,795 145,792 146,791 146,790 147,789 147,786 146,785 146,784 145,783 146,782 146,776 145,776 143,774 143,769 141,767 141,766 140,765 141,764 141,759 144,756" stroke="black" stroke-width="1" /><polyline fill="none" points="568,122 567,123 566,123 564,125 563,125 561,127 561,128 560,129 560,130 559,131 553,131 553,132 552,133 553,134 553,135 554,136 554,141 553,142 554,143 554,144 555,145 556,145 558,147 558,149 556,151 556,154 557,154 558,155 559,155 560,156 560,160 562,162 564,162 565,163 566,163 567,164 567,168 565,170 565,173 566,174 566,177 567,178 572,178 573,179 576,179 577,178 578,178 579,179 582,179 583,180 586,180 586,176 585,175 585,171 586,170 586,169 587,168 587,163 582,158 582,148 579,145 579,144 580,143 580,140 585,135 585,132 584,132 583,131 579,131 577,129 577,128 576,127 575,127 574,126 572,126 570,124 570,123 569,123" stroke="black" stroke-width="1" /><polyline fill="none" points="568,122 572,126 574,126 579,131 583,131 585,133 585,134 581,138 581,139 580,140 580,143 579,144 579,145 580,146 580,147 581,147 582,148 582,158 583,159 583,160 587,164 587,168 586,169 586,170 585,171 585,175 586,176 586,179 585,180 583,180 582,179 579,179 578,178 576,178 575,179 573,179 572,178 567,178 566,177 566,173 565,172 565,171 567,169 567,164 566,163 565,163 564,162 562,162 560,160 560,156 559,155 558,155 556,153 556,152 558,150 558,146 557,146 553,142 554,141 554,135 552,133 554,131 560,131 560,129 561,128 561,127 563,125 564,125 565,124 566,124" stroke="black" stroke-width="1" /><polyline fill="none" points="826,85 824,87 822,87 820,89 820,90 819,91 817,91 816,92 815,92 815,93 813,95 813,96 812,97 812,98 811,99 811,101 812,102 812,103 813,104 813,105 812,106 812,107 811,108 811,109 810,110 810,111 811,112 811,115 812,116 812,117 813,118 813,123 814,124 814,125 815,125 816,126 817,126 820,129 820,130 821,131 824,131 825,130 827,130 827,128 826,127 826,124 828,122 829,122 830,121 832,121 832,117 833,116 833,115 836,112 837,112 837,107 834,104 834,103 836,101 836,95 833,92 833,91 828,86 827,86" stroke="black" stroke-width="1" /><polyline fill="none" points="826,85 834,93 834,94 836,96 836,100 835,101 835,102 834,103 834,104 835,105 835,106 837,108 837,111 835,113 834,113 834,114 833,115 833,116 832,117 832,120 831,121 830,121 829,122 828,122 826,124 826,127 827,128 827,129 826,130 825,130 824,131 822,131 819,128 819,127 818,127 817,126 816,126 813,123 813,117 811,115 811,112 810,111 810,110 811,109 811,108 813,106 813,104 812,103 812,102 811,101 811,99 812,98 812,97 814,95 814,94 817,91 820,91 820,89 822,87 824,87" stroke="black" stroke-width="1" /><polyline fill="none" points="694,74 693,75 691,75 689,77 689,79 688,80 686,78 685,78 684,77 681,77 680,78 674,78 673,77 672,77 671,76 668,76 667,77 666,77 665,78 664,78 662,80 662,81 661,82 662,83 662,84 663,85 663,86 664,87 664,89 662,91 662,92 661,93 661,97 662,98 662,100 661,101 662,102 662,103 663,103 664,104 665,104 669,108 670,108 671,109 671,110 670,111 666,111 665,112 664,112 663,113 663,114 662,115 662,121 663,122 663,123 664,124 664,128 663,129 663,130 662,131 663,132 663,135 664,136 664,139 663,140 664,141 664,142 668,146 668,148 667,149 668,150 668,151 669,152 669,153 670,154 670,156 669,157 669,158 668,159 668,161 669,162 669,163 670,164 670,165 672,167 672,168 671,169 671,170 672,171 672,174 671,175 672,176 672,177 673,178 673,182 676,185 676,187 677,188 677,193 676,194 676,203 677,204 677,205 679,205 680,204 682,206 682,213 683,214 683,215 684,216 684,217 685,218 686,218 687,219 691,219 695,215 701,215 702,214 704,214 705,213 708,213 709,214 712,214 713,213 716,213 717,214 718,214 719,215 723,215 724,214 725,214 729,210 730,210 731,209 742,209 742,202 741,201 741,200 738,197 738,196 737,196 736,195 734,195 733,194 732,195 731,195 730,196 729,196 728,195 727,196 726,196 726,197 725,198 725,201 724,202 723,202 721,204 720,204 718,202 717,202 716,201 716,199 715,198 710,198 709,197 708,197 707,196 706,196 705,197 701,197 700,196 699,196 697,194 697,192 696,191 696,190 695,189 695,187 693,185 693,178 694,177 694,175 693,174 693,172 692,171 692,169 691,168 692,167 692,164 691,163 691,161 692,160 692,157 695,154 696,154 697,153 698,154 706,154 707,153 710,153 711,152 712,152 716,148 720,148 721,147 721,138 720,138 717,135 716,135 715,134 712,134 709,137 706,137 705,136 704,136 703,135 702,136 701,136 701,137 700,138 700,139 699,140 697,140 692,135 692,134 689,131 689,130 688,129 688,128 685,125 686,124 686,122 685,121 685,120 686,119 686,117 684,115 684,114 686,112 686,108 685,107 685,105 686,104 686,103 687,102 687,100 689,98 692,98 693,97 694,97 695,96 697,96 699,94 701,94 703,96 707,96 708,95 708,94 711,91 712,92 714,92 715,91 716,91 716,88 717,87 717,84 716,83 716,79 715,78 714,78 713,77 712,77 711,76 710,77 706,77 705,76 704,76 703,75 702,75 701,74 699,74 698,75 695,75" stroke="black" stroke-width="1" /><polyline fill="none" points="693,75 694,74 695,75 699,75 700,74 701,74 702,75 703,75 705,77 710,77 711,76 712,77 713,77 716,80 716,83 717,84 717,87 716,88 716,90 714,92 712,92 711,91 710,92 709,92 709,93 706,96 704,96 703,95 702,95 701,94 699,94 698,95 697,95 696,96 695,96 694,97 693,97 692,98 689,98 687,100 687,102 686,103 686,104 685,105 685,107 686,108 686,111 685,112 685,113 684,114 684,115 685,116 685,117 686,118 686,119 685,120 685,121 686,122 686,124 685,125 686,126 686,127 689,130 689,131 690,132 690,133 693,136 693,137 694,138 695,138 697,140 700,140 700,138 703,135 704,136 705,136 706,137 710,137 710,136 712,134 715,134 718,137 719,137 721,139 721,146 719,148 715,148 710,153 707,153 706,154 698,154 697,153 696,154 695,154 694,155 693,155 693,156 692,157 692,160 691,161 691,164 692,165 692,167 691,168 692,169 692,171 693,172 693,174 694,175 694,177 693,178 693,185 695,187 695,189 696,190 696,191 697,192 697,194 698,195 698,196 700,196 701,197 705,197 706,196 707,196 709,198 714,198 716,200 716,201 717,202 718,202 720,204 722,204 725,201 725,198 728,195 729,196 731,196 733,194 734,195 736,195 739,198 739,199 742,202 742,208 741,209 731,209 730,210 729,210 728,211 727,211 723,215 719,215 718,214 717,214 716,213 713,213 712,214 709,214 708,213 705,213 704,214 702,214 701,215 694,215 690,219 687,219 683,215 683,214 682,213 682,205 681,205 680,204 679,205 678,205 676,203 676,194 677,193 677,188 676,187 676,184 675,184 673,182 673,177 671,175 672,174 672,171 671,170 671,169 672,168 672,166 669,163 669,162 668,161 668,159 670,157 670,154 669,153 669,152 668,151 668,150 667,149 668,148 668,145 663,140 664,139 664,136 663,135 663,132 662,131 664,129 664,123 662,121 662,115 666,111 671,111 671,109 667,105 666,105 665,104 664,104 661,101 662,100 662,97 661,96 661,93 664,90 664,86 662,84 662,83 661,82 666,77 667,77 668,76 671,76 672,77 673,77 674,78 680,78 681,77 684,77 687,80 689,80 689,77 691,75" stroke="black" stroke-width="1" /><polyline fill="none" points="937,73 936,74 935,74 933,76 933,80 934,81 934,92 933,93 929,93 928,94 927,94 927,95 925,97 925,101 923,103 923,106 924,107 924,108 923,109 923,115 922,116 922,117 923,118 923,120 922,121 921,121 921,123 922,124 922,127 921,128 921,129 919,131 918,131 918,132 917,133 917,136 918,137 918,139 917,140 917,141 916,142 916,145 915,146 914,146 914,147 913,148 914,149 914,154 912,156 912,157 911,158 912,159 912,165 913,165 915,167 913,169 912,169 911,170 911,171 910,172 910,173 909,174 908,174 907,175 903,175 902,176 900,176 898,178 899,179 899,180 901,180 902,181 903,181 909,187 910,187 912,189 912,190 909,193 908,193 904,197 904,198 903,199 903,201 907,205 907,207 906,208 905,208 903,210 903,211 902,212 902,213 903,214 903,215 904,216 907,216 908,215 909,215 910,214 911,214 912,213 913,213 915,215 915,218 918,221 922,221 923,220 925,222 925,224 926,225 926,226 933,226 934,225 935,225 936,226 937,226 938,227 942,227 943,226 944,226 946,224 949,227 953,227 954,226 955,226 955,225 956,224 959,224 961,222 961,217 958,214 958,209 957,209 956,208 955,209 954,209 953,210 948,210 946,212 944,210 943,210 942,209 941,209 940,208 937,208 936,207 936,206 933,206 932,207 930,207 929,206 929,205 927,203 927,200 926,199 926,197 925,196 925,194 927,192 927,191 928,190 928,188 929,187 929,184 930,183 930,180 928,178 928,177 931,174 935,174 935,170 934,169 934,167 937,164 937,160 938,159 938,156 940,154 941,155 941,157 942,158 942,159 943,160 948,160 951,157 952,157 955,160 960,160 962,158 967,158 968,157 968,152 967,151 967,150 966,149 966,148 965,147 964,147 963,146 957,146 956,145 955,145 952,142 950,142 949,143 948,143 947,142 947,141 946,140 946,138 945,137 945,136 942,133 942,128 943,127 943,123 942,122 942,121 943,120 943,117 942,116 942,115 941,114 943,112 945,112 946,111 948,111 948,109 947,108 947,107 945,105 945,104 946,103 947,103 947,102 948,101 948,99 949,98 950,98 956,104 959,104 960,103 962,103 963,104 965,104 966,103 967,103 968,102 969,102 970,103 975,103 976,104 986,104 989,101 989,100 990,99 990,95 989,94 989,91 988,91 986,89 987,88 987,83 985,83 984,84 984,85 983,86 983,89 982,90 981,90 975,84 974,84 973,83 970,86 968,84 967,84 966,83 961,83 960,82 958,82 957,83 955,83 954,82 953,82 952,81 948,81 947,80 946,80 940,74 939,74 938,73" stroke="black" stroke-width="1" /><polyline fill="none" points="936,74 937,73 938,73 944,79 945,79 947,81 952,81 953,82 954,82 955,83 957,83 958,82 960,82 961,83 966,83 969,86 971,86 971,85 973,83 979,89 980,89 981,90 983,90 983,86 986,83 987,84 987,88 986,89 989,92 989,94 990,95 990,99 985,104 976,104 975,103 971,103 970,102 967,102 965,104 963,104 962,103 960,103 959,104 957,104 951,98 949,98 948,99 948,101 946,103 945,103 945,105 946,106 946,107 948,109 948,110 947,111 946,111 945,112 943,112 942,113 941,113 941,115 943,117 943,120 942,121 942,122 943,123 943,127 942,128 942,133 943,134 943,135 946,138 946,140 947,141 947,142 948,143 950,143 951,142 953,144 954,144 955,145 956,145 957,146 963,146 967,150 967,151 968,152 968,156 966,158 962,158 961,159 960,159 959,160 956,160 953,157 950,157 947,160 944,160 941,157 941,154 939,154 939,155 938,156 938,159 937,160 937,163 935,165 935,166 934,167 934,170 935,171 935,173 934,174 931,174 930,175 929,175 928,176 928,179 929,179 930,180 930,183 929,184 929,187 928,188 928,190 926,192 926,193 925,194 925,196 926,197 926,199 927,200 927,203 928,204 928,205 930,207 932,207 933,206 935,206 937,208 940,208 941,209 942,209 945,212 947,212 949,210 953,210 954,209 955,209 956,208 958,210 958,214 959,215 959,216 961,218 961,221 958,224 955,224 955,225 953,227 949,227 948,226 948,225 947,225 946,224 945,225 944,225 942,227 938,227 937,226 936,226 935,225 934,225 933,226 927,226 925,224 925,222 923,220 922,221 919,221 918,220 917,220 915,218 915,214 914,214 913,213 912,213 911,214 910,214 909,215 908,215 907,216 905,216 902,213 902,212 907,207 907,204 906,203 905,203 903,201 903,199 910,192 911,192 912,191 912,188 911,188 905,182 904,182 903,181 902,181 901,180 900,180 898,178 900,176 902,176 903,175 907,175 908,174 910,174 910,172 914,168 915,168 915,166 914,166 912,164 912,159 911,158 914,155 914,149 913,148 916,145 916,142 917,141 917,140 918,139 918,137 917,136 917,133 920,130 921,130 921,128 922,127 922,123 921,122 923,120 923,118 922,117 922,116 923,115 923,109 924,108 924,106 923,105 923,104 925,102 925,98 926,97 926,96 929,93 933,93 934,92 934,81 933,80 933,76 935,74" stroke="black" stroke-width="1" /></svg>