<?xml version="1.0" encoding="utf-8" ?>
<svg baseProfile="full" height="1600" version="1.1" width="1600" xmlns="http://www.w3.org/2000/svg" xmlns:ev="http://www.w3.org/2001/xml-events" xmlns:xlink="http://www.w3.org/1999/xlink"><defs /><polyline fill="none" points="796,11 795,12 757,12 756,13 743,13 742,14 729,14 728,15 719,15 718,16 710,16 709,17 701,17 700,18 694,18 693,19 686,19 685,20 679,20 678,21 674,21 673,22 667,22 666,23 662,23 661,24 656,24 655,25 650,25 649,26 645,26 644,27 641,27 640,28 636,28 635,29 631,29 630,30 627,30 626,31 622,31 621,32 618,32 617,33 614,33 613,34 609,34 608,35 605,35 604,36 602,36 601,37 598,37 597,38 594,38 593,39 590,39 589,40 587,40 586,41 583,41 582,42 580,42 579,43 576,43 575,44 573,44 572,45 570,45 569,46 566,46 565,47 563,47 562,48 560,48 559,49 557,49 556,50 554,50 553,51 551,51 550,52 548,52 547,53 545,53 544,54 542,54 541,55 539,55 538,56 536,56 535,57 533,57 532,58 530,58 529,59 528,59 527,60 525,60 524,61 522,61 521,62 520,62 519,63 517,63 516,64 514,64 513,65 512,65 511,66 509,66 508,67 507,67 506,68 504,68 503,69 502,69 501,70 499,70 498,71 497,71 496,72 495,72 494,73 492,73 491,74 489,74 488,75 487,75 486,76 485,76 484,77 483,77 482,78 480,78 479,79 478,79 477,80 476,80 475,81 473,81 472,82 471,82 469,84 467,84 466,85 465,85 464,86 463,86 462,87 461,87 460,88 458,88 457,89 456,89 455,90 454,90 453,91 452,91 451,92 450,92 449,93 448,93 447,94 446,94 445,95 444,95 443,96 442,96 441,97 440,97 439,98 438,98 437,99 436,99 435,100 434,100 432,102 430,102 428,104 427,104 426,105 425,105 424,106 423,106 422,107 421,107 420,108 419,108 417,110 416,110 415,111 414,111 413,112 412,112 411,113 410,113 408,115 407,115 406,116 405,116 403,118 402,118 401,119 400,119 399,120 398,120 396,122 395,122 394,123 393,123 391,125 390,125 389,126 388,126 386,128 385,128 384,129 383,129 381,131 380,131 378,133 377,133 376,134 375,134 373,136 372,136 370,138 369,138 367,140 366,140 364,142 363,142 361,144 360,144 358,146 357,146 355,148 354,148 352,150 351,150 349,152 348,152 345,155 344,155 342,157 341,157 338,160 337,160 335,162 334,162 331,165 330,165 327,168 326,168 323,171 322,171 319,174 318,174 315,177 314,177 310,181 309,181 305,185 304,185 300,189 299,189 294,194 293,194 287,200 286,200 281,205 280,205 271,214 270,214 259,225 258,225 223,260 223,261 212,272 212,273 203,282 203,283 198,288 198,289 192,295 192,296 187,301 187,302 183,306 183,307 179,311 179,312 175,316 175,317 172,320 172,321 169,324 169,325 166,328 166,329 163,332 163,333 160,336 160,337 158,339 158,340 156,342 156,343 153,346 153,347 150,350 150,351 148,353 148,354 146,356 146,357 144,359 144,360 142,362 142,363 140,365 140,366 138,368 138,369 136,371 136,372 134,374 134,375 132,377 132,378 131,379 131,380 129,382 129,383 127,385 127,386 126,387 126,388 124,390 124,391 123,392 123,393 121,395 121,396 120,397 120,398 118,400 118,401 117,402 117,403 116,404 116,405 114,407 114,408 113,409 113,410 111,412 111,413 110,414 110,415 109,416 109,417 107,419 107,421 105,423 105,424 104,425 104,426 103,427 103,428 102,429 102,430 101,431 101,432 99,434 99,435 98,436 98,437 97,438 97,439 96,440 96,441 95,442 95,443 94,444 94,445 93,446 93,447 92,448 92,449 91,450 91,451 90,452 90,453 89,454 89,456 88,457 88,458 86,460 86,462 85,463 85,464 84,465 84,466 83,467 83,468 82,469 82,470 81,471 81,472 80,473 80,475 79,476 79,477 78,478 78,479 77,480 77,482 76,483 76,484 75,485 75,486 74,487 74,488 73,489 73,491 72,492 72,493 71,494 71,496 70,497 70,498 69,499 69,500 68,501 68,503 67,504 67,505 66,506 66,508 65,509 65,510 64,511 64,513 63,514 63,516 62,517 62,518 61,519 61,521 60,522 60,523 59,524 59,526 58,527 58,529 57,530 57,532 56,533 56,534 55,535 55,537 54,538 54,540 53,541 53,543 52,544 52,545 51,546 51,548 50,549 50,552 49,553 49,555 48,556 48,558 47,559 47,561 46,562 46,564 45,565 45,567 44,568 44,570 43,571 43,574 42,575 42,577 41,578 41,581 40,582 40,584 39,585 39,588 38,589 38,591 37,592 37,595 36,596 36,599 35,600 35,603 34,604 34,606 33,607 33,610 32,611 32,614 31,615 31,619 30,620 30,623 29,624 29,628 28,629 28,632 27,633 27,636 26,637 26,642 25,643 25,646 24,647 24,651 23,652 23,657 22,658 22,663 21,664 21,668 20,669 20,674 19,675 19,680 18,681 18,687 17,688 17,694 16,695 16,702 15,703 15,710 14,711 14,720 13,721 13,730 12,731 12,743 11,744 11,759 10,760 10,793 9,794 9,796 10,797 10,798 9,799 10,800 9,801 9,803 10,804 10,807 9,808 10,809 9,810 10,811 10,845 11,846 11,860 12,861 12,874 13,875 13,884 14,885 14,894 15,895 15,902 16,903 16,910 17,911 17,917 18,918 18,923 19,924 19,930 20,931 20,935 21,936 21,941 22,942 22,948 23,949 23,953 24,954 24,958 25,959 25,963 26,964 26,967 27,968 27,972 28,973 28,977 29,978 29,981 30,982 30,985 31,986 31,990 32,991 32,994 33,995 33,998 34,999 34,1002 35,1003 35,1005 36,1006 36,1009 37,1010 37,1013 38,1014 38,1016 39,1017 39,1020 40,1021 40,1024 41,1025 41,1027 42,1028 42,1030 43,1031 43,1034 44,1035 44,1037 45,1038 45,1040 46,1041 46,1043 47,1044 47,1046 48,1047 48,1049 49,1050 49,1052 50,1053 50,1055 51,1056 51,1059 52,1060 52,1061 53,1062 53,1064 54,1065 54,1067 55,1068 55,1070 56,1071 56,1073 57,1074 57,1075 58,1076 58,1078 59,1079 59,1081 60,1082 60,1083 61,1084 61,1086 62,1087 62,1089 63,1090 63,1091 64,1092 64,1094 65,1095 65,1096 66,1097 66,1099 67,1100 67,1101 68,1102 68,1104 69,1105 69,1106 70,1107 70,1108 71,1109 71,1112 72,1113 72,1114 73,1115 73,1116 74,1117 74,1118 75,1119 75,1120 76,1121 76,1122 77,1123 77,1125 78,1126 78,1127 79,1128 79,1130 80,1131 80,1132 81,1133 81,1134 82,1135 82,1136 83,1137 83,1138 84,1139 84,1141 85,1142 85,1143 86,1144 86,1145 87,1146 87,1147 88,1148 88,1149 89,1150 89,1151 90,1152 90,1153 91,1154 91,1155 92,1156 92,1157 93,1158 93,1159 94,1160 94,1161 95,1162 95,1163 96,1164 96,1165 97,1166 97,1167 98,1168 98,1169 99,1170 99,1171 101,1173 101,1174 102,1175 102,1176 103,1177 103,1178 104,1179 104,1180 105,1181 105,1182 106,1183 106,1184 108,1186 108,1187 109,1188 109,1189 110,1190 110,1191 111,1192 111,1193 113,1195 113,1196 114,1197 114,1198 115,1199 115,1200 117,1202 117,1203 118,1204 118,1205 119,1206 119,1207 121,1209 121,1210 123,1212 123,1213 124,1214 124,1215 126,1217 126,1218 127,1219 127,1220 129,1222 129,1223 131,1225 131,1226 132,1227 132,1228 134,1230 134,1231 136,1233 136,1234 138,1236 138,1237 140,1239 140,1240 142,1242 142,1243 144,1245 144,1246 146,1248 146,1249 148,1251 148,1252 150,1254 150,1255 153,1258 153,1259 155,1261 155,1262 158,1265 158,1266 160,1268 160,1269 163,1272 163,1273 166,1276 166,1277 169,1280 169,1281 172,1284 172,1285 175,1288 175,1289 179,1293 179,1294 183,1298 183,1299 187,1303 187,1304 192,1309 192,1310 197,1315 197,1316 204,1323 204,1324 211,1331 211,1332 223,1344 223,1345 257,1379 258,1379 271,1392 272,1392 280,1400 281,1400 286,1405 287,1405 293,1411 294,1411 299,1416 300,1416 304,1420 305,1420 309,1424 310,1424 314,1428 315,1428 318,1431 319,1431 322,1434 323,1434 326,1437 327,1437 330,1440 331,1440 334,1443 335,1443 338,1446 339,1446 341,1448 342,1448 344,1450 345,1450 348,1453 349,1453 351,1455 352,1455 354,1457 355,1457 357,1459 358,1459 360,1461 361,1461 363,1463 364,1463 366,1465 367,1465 369,1467 370,1467 372,1469 373,1469 374,1470 375,1470 377,1472 378,1472 380,1474 381,1474 383,1476 384,1476 385,1477 386,1477 388,1479 389,1479 390,1480 391,1480 393,1482 394,1482 395,1483 396,1483 398,1485 399,1485 400,1486 401,1486 403,1488 404,1488 405,1489 406,1489 407,1490 408,1490 410,1492 411,1492 412,1493 413,1493 414,1494 415,1494 416,1495 417,1495 419,1497 420,1497 421,1498 422,1498 423,1499 424,1499 425,1500 426,1500 427,1501 428,1501 430,1503 431,1503 432,1504 433,1504 434,1505 435,1505 436,1506 437,1506 438,1507 439,1507 440,1508 441,1508 442,1509 443,1509 444,1510 445,1510 446,1511 447,1511 448,1512 449,1512 450,1513 451,1513 452,1514 453,1514 454,1515 455,1515 456,1516 457,1516 458,1517 459,1517 460,1518 461,1518 462,1519 464,1519 465,1520 466,1520 467,1521 468,1521 469,1522 470,1522 471,1523 472,1523 473,1524 475,1524 476,1525 477,1525 478,1526 479,1526 480,1527 482,1527 483,1528 484,1528 485,1529 487,1529 489,1531 491,1531 492,1532 493,1532 494,1533 496,1533 497,1534 498,1534 499,1535 501,1535 502,1536 503,1536 504,1537 506,1537 507,1538 508,1538 509,1539 510,1539 511,1540 513,1540 514,1541 516,1541 517,1542 519,1542 520,1543 521,1543 522,1544 524,1544 525,1545 527,1545 528,1546 530,1546 531,1547 532,1547 533,1548 535,1548 536,1549 538,1549 539,1550 541,1550 542,1551 543,1551 544,1552 546,1552 547,1553 550,1553 551,1554 553,1554 554,1555 556,1555 557,1556 559,1556 560,1557 562,1557 563,1558 565,1558 566,1559 568,1559 569,1560 572,1560 573,1561 575,1561 576,1562 579,1562 580,1563 582,1563 583,1564 586,1564 587,1565 589,1565 590,1566 593,1566 594,1567 597,1567 598,1568 600,1568 601,1569 604,1569 605,1570 608,1570 609,1571 612,1571 613,1572 617,1572 618,1573 621,1573 622,1574 626,1574 627,1575 630,1575 631,1576 634,1576 635,1577 639,1577 640,1578 644,1578 645,1579 649,1579 650,1580 655,1580 656,1581 660,1581 661,1582 666,1582 667,1583 672,1583 673,1584 678,1584 679,1585 685,1585 686,1586 692,1586 693,1587 699,1587 700,1588 708,1588 709,1589 718,1589 719,1590 728,1590 729,1591 741,1591 742,1592 757,1592 758,1593 796,1593 797,1594 802,1594 803,1593 804,1594 805,1593 806,1593 807,1594 808,1594 809,1593 844,1593 845,1592 859,1592 860,1591 871,1591 872,1590 882,1590 883,1589 891,1589 892,1588 898,1588 899,1587 908,1587 909,1586 915,1586 916,1585 921,1585 922,1584 928,1584 929,1583 934,1583 935,1582 939,1582 940,1581 945,1581 946,1580 951,1580 952,1579 956,1579 957,1578 961,1578 962,1577 965,1577 966,1576 970,1576 971,1575 975,1575 976,1574 979,1574 980,1573 983,1573 984,1572 987,1572 988,1571 991,1571 992,1570 996,1570 997,1569 999,1569 1000,1568 1003,1568 1004,1567 1007,1567 1008,1566 1011,1566 1012,1565 1015,1565 1016,1564 1018,1564 1019,1563 1021,1563 1022,1562 1025,1562 1026,1561 1028,1561 1029,1560 1031,1560 1032,1559 1035,1559 1036,1558 1038,1558 1039,1557 1041,1557 1042,1556 1044,1556 1045,1555 1048,1555 1049,1554 1051,1554 1052,1553 1054,1553 1055,1552 1057,1552 1058,1551 1059,1551 1060,1550 1062,1550 1063,1549 1065,1549 1066,1548 1068,1548 1069,1547 1071,1547 1072,1546 1074,1546 1075,1545 1076,1545 1077,1544 1079,1544 1080,1543 1081,1543 1082,1542 1084,1542 1085,1541 1087,1541 1088,1540 1089,1540 1090,1539 1092,1539 1093,1538 1095,1538 1096,1537 1097,1537 1098,1536 1100,1536 1101,1535 1103,1535 1104,1534 1105,1534 1106,1533 1107,1533 1108,1532 1110,1532 1112,1530 1114,1530 1115,1529 1116,1529 1117,1528 1118,1528 1119,1527 1121,1527 1122,1526 1123,1526 1124,1525 1125,1525 1126,1524 1128,1524 1129,1523 1130,1523 1131,1522 1132,1522 1133,1521 1135,1521 1137,1519 1139,1519 1140,1518 1141,1518 1142,1517 1143,1517 1144,1516 1145,1516 1146,1515 1147,1515 1148,1514 1149,1514 1150,1513 1151,1513 1152,1512 1153,1512 1154,1511 1155,1511 1156,1510 1157,1510 1158,1509 1159,1509 1160,1508 1161,1508 1163,1506 1165,1506 1166,1505 1167,1505 1169,1503 1170,1503 1171,1502 1173,1502 1175,1500 1176,1500 1177,1499 1178,1499 1179,1498 1180,1498 1181,1497 1182,1497 1183,1496 1184,1496 1186,1494 1187,1494 1188,1493 1189,1493 1190,1492 1191,1492 1193,1490 1194,1490 1195,1489 1196,1489 1197,1488 1198,1488 1200,1486 1201,1486 1202,1485 1203,1485 1204,1484 1205,1484 1207,1482 1208,1482 1209,1481 1210,1481 1212,1479 1213,1479 1215,1477 1216,1477 1217,1476 1218,1476 1220,1474 1221,1474 1223,1472 1224,1472 1225,1471 1226,1471 1228,1469 1229,1469 1231,1467 1232,1467 1234,1465 1235,1465 1237,1463 1238,1463 1240,1461 1241,1461 1243,1459 1244,1459 1246,1457 1247,1457 1249,1455 1250,1455 1252,1453 1253,1453 1255,1451 1256,1451 1259,1448 1260,1448 1262,1446 1263,1446 1266,1443 1267,1443 1270,1440 1271,1440 1274,1437 1275,1437 1278,1434 1279,1434 1282,1431 1283,1431 1286,1428 1287,1428 1291,1424 1292,1424 1296,1420 1297,1420 1301,1416 1302,1416 1307,1411 1308,1411 1313,1406 1314,1406 1321,1399 1322,1399 1329,1392 1330,1392 1342,1380 1343,1380 1377,1346 1377,1345 1389,1333 1389,1332 1397,1324 1397,1323 1403,1317 1403,1316 1409,1310 1409,1309 1413,1305 1413,1304 1418,1299 1418,1298 1422,1294 1422,1293 1425,1290 1425,1289 1429,1285 1429,1284 1432,1281 1432,1280 1435,1277 1435,1276 1438,1273 1438,1272 1441,1269 1441,1268 1443,1266 1443,1265 1446,1262 1446,1261 1448,1259 1448,1258 1451,1255 1451,1254 1453,1252 1453,1251 1455,1249 1455,1248 1457,1246 1457,1245 1459,1243 1459,1242 1461,1240 1461,1239 1463,1237 1463,1236 1465,1234 1465,1233 1467,1231 1467,1230 1469,1228 1469,1227 1470,1226 1470,1225 1472,1223 1472,1222 1474,1220 1474,1219 1475,1218 1475,1217 1477,1215 1477,1214 1478,1213 1478,1212 1480,1210 1480,1209 1481,1208 1481,1207 1483,1205 1483,1204 1484,1203 1484,1202 1486,1200 1486,1199 1487,1198 1487,1197 1488,1196 1488,1195 1490,1193 1490,1192 1491,1191 1491,1190 1492,1189 1492,1188 1493,1187 1493,1186 1495,1184 1495,1183 1496,1182 1496,1181 1497,1180 1497,1179 1498,1178 1498,1177 1499,1176 1499,1175 1501,1173 1501,1172 1502,1171 1502,1170 1503,1169 1503,1168 1504,1167 1504,1166 1505,1165 1505,1164 1506,1163 1506,1161 1508,1159 1508,1158 1509,1157 1509,1156 1510,1155 1510,1154 1511,1153 1511,1152 1512,1151 1512,1150 1513,1149 1513,1148 1514,1147 1514,1145 1516,1143 1516,1142 1517,1141 1517,1139 1518,1138 1518,1137 1519,1136 1519,1135 1520,1134 1520,1133 1521,1132 1521,1131 1522,1130 1522,1128 1523,1127 1523,1126 1524,1125 1524,1124 1525,1123 1525,1121 1526,1120 1526,1119 1527,1118 1527,1116 1528,1115 1528,1114 1529,1113 1529,1112 1530,1111 1530,1109 1531,1108 1531,1107 1532,1106 1532,1104 1533,1103 1533,1102 1534,1101 1534,1100 1535,1099 1535,1097 1536,1096 1536,1095 1537,1094 1537,1092 1538,1091 1538,1089 1539,1088 1539,1087 1540,1086 1540,1084 1541,1083 1541,1082 1542,1081 1542,1079 1543,1078 1543,1076 1544,1075 1544,1073 1545,1072 1545,1071 1546,1070 1546,1068 1547,1067 1547,1065 1548,1064 1548,1062 1549,1061 1549,1059 1550,1058 1550,1057 1551,1056 1551,1053 1552,1052 1552,1050 1553,1049 1553,1047 1554,1046 1554,1044 1555,1043 1555,1041 1556,1040 1556,1038 1557,1037 1557,1034 1558,1033 1558,1031 1559,1030 1559,1028 1560,1027 1560,1024 1561,1023 1561,1021 1562,1020 1562,1018 1563,1017 1563,1014 1564,1013 1564,1010 1565,1009 1565,1006 1566,1005 1566,1002 1567,1001 1567,999 1568,998 1568,995 1569,994 1569,991 1570,990 1570,986 1571,985 1571,982 1572,981 1572,977 1573,976 1573,973 1574,972 1574,969 1575,968 1575,964 1576,963 1576,959 1577,958 1577,953 1578,952 1578,948 1579,947 1579,942 1580,941 1580,937 1581,936 1581,931 1582,930 1582,925 1583,924 1583,918 1584,917 1584,911 1585,910 1585,903 1586,902 1586,895 1587,894 1587,885 1588,884 1588,874 1589,873 1589,863 1590,862 1590,845 1591,844 1591,812 1592,811 1591,810 1591,806 1592,805 1591,804 1591,801 1592,800 1591,799 1591,798 1592,797 1591,796 1591,795 1592,794 1592,792 1591,791 1591,760 1590,759 1590,745 1589,744 1589,731 1588,730 1588,721 1587,720 1587,712 1586,711 1586,703 1585,702 1585,695 1584,694 1584,688 1583,687 1583,681 1582,680 1582,675 1581,674 1581,670 1580,669 1580,664 1579,663 1579,658 1578,657 1578,653 1577,652 1577,647 1576,646 1576,642 1575,641 1575,637 1574,636 1574,633 1573,632 1573,629 1572,628 1572,624 1571,623 1571,620 1570,619 1570,616 1569,615 1569,611 1568,610 1568,608 1567,607 1567,603 1566,602 1566,600 1565,599 1565,596 1564,595 1564,592 1563,591 1563,589 1562,588 1562,585 1561,584 1561,581 1560,580 1560,578 1559,577 1559,575 1558,574 1558,572 1557,571 1557,568 1556,567 1556,565 1555,564 1555,562 1554,561 1554,559 1553,558 1553,556 1552,555 1552,552 1551,551 1551,550 1550,549 1550,547 1549,546 1549,544 1548,543 1548,541 1547,540 1547,538 1546,537 1546,535 1545,534 1545,532 1544,531 1544,530 1543,529 1543,527 1542,526 1542,524 1541,523 1541,522 1540,521 1540,519 1539,518 1539,516 1538,515 1538,514 1537,513 1537,511 1536,510 1536,509 1535,508 1535,506 1534,505 1534,504 1533,503 1533,501 1532,500 1532,499 1531,498 1531,497 1530,496 1530,494 1529,493 1529,491 1527,489 1527,487 1526,486 1526,484 1524,482 1524,480 1523,479 1523,478 1522,477 1522,475 1520,473 1520,472 1519,471 1519,469 1518,468 1518,467 1517,466 1517,464 1516,463 1516,462 1515,461 1515,460 1514,459 1514,458 1513,457 1513,456 1512,455 1512,454 1511,453 1511,452 1510,451 1510,450 1509,449 1509,448 1508,447 1508,446 1507,445 1507,444 1506,443 1506,442 1505,441 1505,440 1504,439 1504,438 1503,437 1503,436 1502,435 1502,434 1500,432 1500,431 1499,430 1499,429 1498,428 1498,427 1497,426 1497,425 1496,424 1496,423 1495,422 1495,421 1493,419 1493,418 1492,417 1492,416 1491,415 1491,414 1490,413 1490,412 1488,410 1488,409 1487,408 1487,407 1485,405 1485,404 1484,403 1484,402 1483,401 1483,400 1481,398 1481,397 1480,396 1480,395 1478,393 1478,392 1477,391 1477,390 1475,388 1475,387 1474,386 1474,385 1472,383 1472,382 1470,380 1470,379 1468,377 1468,376 1467,375 1467,374 1465,372 1465,371 1463,369 1463,368 1461,366 1461,365 1459,363 1459,362 1457,360 1457,359 1455,357 1455,356 1453,354 1453,353 1451,351 1451,350 1448,347 1448,346 1446,344 1446,343 1443,340 1443,339 1441,337 1441,336 1438,333 1438,332 1435,329 1435,328 1432,325 1432,324 1429,321 1429,320 1426,317 1426,316 1422,312 1422,311 1418,307 1418,306 1414,302 1414,301 1409,296 1409,295 1403,289 1403,288 1397,282 1397,281 1390,274 1390,273 1376,259 1376,258 1343,225 1342,225 1331,214 1330,214 1322,206 1321,206 1315,200 1314,200 1308,194 1307,194 1302,189 1301,189 1297,185 1296,185 1292,181 1291,181 1287,177 1286,177 1283,174 1282,174 1279,171 1278,171 1275,168 1274,168 1271,165 1270,165 1267,162 1266,162 1264,160 1263,160 1260,157 1259,157 1257,155 1256,155 1253,152 1252,152 1250,150 1249,150 1247,148 1246,148 1244,146 1243,146 1241,144 1240,144 1238,142 1237,142 1235,140 1234,140 1232,138 1231,138 1229,136 1228,136 1226,134 1225,134 1224,133 1223,133 1221,131 1220,131 1218,129 1217,129 1216,128 1215,128 1213,126 1212,126 1211,125 1210,125 1208,123 1207,123 1206,122 1205,122 1203,120 1202,120 1201,119 1200,119 1198,117 1197,117 1196,116 1195,116 1194,115 1193,115 1191,113 1190,113 1189,112 1188,112 1187,111 1186,111 1184,109 1183,109 1182,108 1181,108 1180,107 1178,107 1176,105 1175,105 1174,104 1173,104 1171,102 1169,102 1168,101 1167,101 1165,99 1164,99 1163,98 1162,98 1161,97 1160,97 1159,96 1157,96 1155,94 1154,94 1153,93 1152,93 1151,92 1149,92 1147,90 1145,90 1143,88 1142,88 1141,87 1139,87 1138,86 1137,86 1136,85 1134,85 1132,83 1130,83 1129,82 1128,82 1127,81 1126,81 1125,80 1124,80 1123,79 1122,79 1121,78 1120,78 1119,77 1117,77 1116,76 1115,76 1114,75 1112,75 1111,74 1110,74 1109,73 1108,73 1107,72 1105,72 1104,71 1103,71 1102,70 1100,70 1099,69 1098,69 1097,68 1095,68 1094,67 1093,67 1092,66 1090,66 1089,65 1088,65 1087,64 1085,64 1084,63 1083,63 1082,62 1080,62 1079,61 1077,61 1076,60 1074,60 1073,59 1072,59 1071,58 1069,58 1068,57 1066,57 1065,56 1063,56 1062,55 1060,55 1059,54 1057,54 1056,53 1054,53 1053,52 1051,52 1050,51 1048,51 1047,50 1045,50 1044,49 1042,49 1041,48 1039,48 1038,47 1036,47 1035,46 1033,46 1032,45 1029,45 1028,44 1026,44 1025,43 1022,43 1021,42 1019,42 1018,41 1015,41 1014,40 1012,40 1011,39 1008,39 1007,38 1004,38 1003,37 1001,37 1000,36 996,36 995,35 993,35 992,34 988,34 987,33 984,33 983,32 980,32 979,31 975,31 974,30 971,30 970,29 967,29 966,28 962,28 961,27 957,27 956,26 952,26 951,25 947,25 946,24 941,24 940,23 934,23 933,22 928,22 927,21 922,21 921,20 916,20 915,19 909,19 908,18 901,18 900,17 892,17 891,16 883,16 882,15 872,15 871,14 859,14 858,13 843,13 842,12 809,12 808,11 804,11 803,12 802,11 801,12 797,12" stroke="black" stroke-width="1" /></svg>