<?xml version="1.0" encoding="utf-8" ?>
<svg baseProfile="full" height="1600" version="1.1" width="1600" xmlns="http://www.w3.org/2000/svg" xmlns:ev="http://www.w3.org/2001/xml-events" xmlns:xlink="http://www.w3.org/1999/xlink"><defs /><polyline fill="none" points="750,12 452,91 204,281 46,561 11,865 93,1159 287,1406 566,1559 866,1591 1166,1505 1409,1309 1556,1038 1589,743 1519,470 1325,209 1051,51" stroke="black" stroke-width="1" /><polyline fill="none" points="750,12 1051,51 1323,208 1519,470 1589,743 1556,1038 1409,1308 1164,1506 866,1591 566,1559 289,1407 92,1157 11,865 46,561 203,283 452,91" stroke="black" stroke-width="1" /><polyline fill="none" points="781,1385 767,1390 762,1425 767,1441 760,1451 760,1513 774,1524 782,1523 778,1485 786,1393" stroke="black" stroke-width="1" /><polyline fill="none" points="778,1385 786,1393 778,1485 781,1524 760,1513 761,1445 767,1442 762,1433 768,1388" stroke="black" stroke-width="1" /><polyline fill="none" points="855,1384 844,1415 833,1521 852,1520 860,1497 870,1493 885,1496 893,1523 912,1521 879,1384" stroke="black" stroke-width="1" /><polyline fill="none" points="855,1384 879,1385 911,1521 894,1523 882,1493 861,1496 851,1520 840,1525 833,1520 844,1415" stroke="black" stroke-width="1" /><polyline fill="none" points="864,1419 859,1425 863,1429 859,1435 862,1440 860,1445 862,1460 858,1466 858,1473 862,1476 861,1485 864,1485 867,1480 877,1483 882,1479 878,1470 879,1464 876,1461 879,1458 877,1438" stroke="black" stroke-width="1" /><polyline fill="none" points="864,1419 868,1428 874,1431 877,1439 879,1457 876,1461 882,1478 877,1483 867,1480 862,1485 860,1483 862,1476 858,1473 858,1466 862,1461 860,1453 862,1439 859,1436 863,1428 859,1425" stroke="black" stroke-width="1" /><polyline fill="none" points="681,1368 664,1421 664,1457 650,1476 650,1504 701,1520 708,1516 705,1508 678,1495 684,1464 678,1454 685,1446 688,1406 695,1401 691,1370" stroke="black" stroke-width="1" /><polyline fill="none" points="681,1368 691,1371 695,1401 688,1406 685,1446 678,1453 684,1460 678,1495 705,1508 708,1515 700,1520 650,1504 650,1476 664,1458 664,1421" stroke="black" stroke-width="1" /><polyline fill="none" points="1059,1329 1046,1350 1048,1374 1077,1415 1081,1443 1102,1463 1143,1455 1152,1430 1138,1402 1121,1414 1132,1441 1112,1451 1079,1382 1063,1375 1069,1340 1089,1338 1102,1362 1115,1338 1099,1337 1097,1327" stroke="black" stroke-width="1" /><polyline fill="none" points="1061,1328 1097,1327 1099,1337 1115,1338 1102,1362 1091,1339 1069,1340 1063,1376 1079,1383 1112,1451 1131,1443 1121,1414 1138,1402 1152,1431 1141,1456 1103,1463 1080,1441 1077,1414 1046,1363" stroke="black" stroke-width="1" /><polyline fill="none" points="514,1303 505,1314 508,1323 493,1330 489,1343 425,1408 430,1419 446,1425 459,1404 482,1397 485,1416 476,1435 489,1450 521,1386 537,1321 534,1311" stroke="black" stroke-width="1" /><polyline fill="none" points="514,1303 537,1320 521,1386 489,1450 476,1435 485,1417 483,1397 459,1404 445,1425 425,1408 436,1404 470,1355 489,1344 493,1330 508,1324 505,1314" stroke="black" stroke-width="1" /><polyline fill="none" points="506,1344 502,1345 503,1351 496,1355 494,1360 488,1364 481,1378 480,1387 486,1393 492,1393 490,1387 498,1382 496,1372 503,1364 507,1364 506,1358 512,1354 510,1346" stroke="black" stroke-width="1" /><polyline fill="none" points="506,1344 510,1347 512,1354 507,1356 507,1363 503,1364 496,1371 498,1381 490,1387 492,1392 489,1394 480,1387 481,1378 486,1372 488,1364 493,1362 495,1357 503,1352 502,1345" stroke="black" stroke-width="1" /><polyline fill="none" points="260,1010 225,1034 215,1033 200,1015 184,1018 200,1063 171,1092 210,1092 235,1124 244,1082 290,1079 284,1069 254,1060" stroke="black" stroke-width="1" /><polyline fill="none" points="291,1074 256,1086 242,1083 247,1092 234,1124 212,1093 171,1092 200,1063 190,1046 194,1034 183,1022 196,1015 225,1034 258,1009 254,1060" stroke="black" stroke-width="1" /><polyline fill="none" points="142,757 148,807 102,821 156,834 146,845 147,877 166,867 177,847 222,854 208,822 190,819 221,779 169,788 161,763" stroke="black" stroke-width="1" /><polyline fill="none" points="144,756 161,763 169,788 221,779 190,818 208,822 221,854 177,847 149,878 146,846 156,834 102,821 148,808" stroke="black" stroke-width="1" /><polyline fill="none" points="568,122 559,131 552,133 553,142 558,147 556,154 560,156 562,162 567,164 565,170 567,178 586,180 587,163 582,158 582,148 579,145 585,132 579,131" stroke="black" stroke-width="1" /><polyline fill="none" points="568,122 585,133 579,144 582,148 582,158 587,164 585,180 567,178 565,172 567,164 562,162 556,153 558,146 553,142 552,133 560,131 561,127" stroke="black" stroke-width="1" /><polyline fill="none" points="826,85 819,91 815,92 811,99 813,105 810,111 813,123 821,131 827,130 826,124 832,121 833,115 837,112 837,107 834,104 836,101 836,95" stroke="black" stroke-width="1" /><polyline fill="none" points="826,85 836,96 834,104 837,111 834,113 832,120 826,124 827,129 822,131 813,123 813,117 810,110 813,106 811,101 812,97 817,91 820,91 820,89" stroke="black" stroke-width="1" /><polyline fill="none" points="701,74 661,82 661,101 671,109 662,115 676,203 687,219 742,209 736,195 720,204 693,185 692,157 721,147 717,135 697,140 685,125 687,100 716,91 716,79" stroke="black" stroke-width="1" /><polyline fill="none" points="701,74 717,87 687,100 685,125 697,140 715,134 721,146 693,155 698,196 720,204 736,195 742,208 687,219 676,203 662,115 671,109 661,101 661,82" stroke="black" stroke-width="1" /><polyline fill="none" points="937,73 923,103 915,167 898,178 912,189 904,216 953,227 958,209 930,207 925,196 940,154 968,157 947,142 941,114 949,98 986,104 987,83 981,90" stroke="black" stroke-width="1" /><polyline fill="none" points="937,73 981,90 986,83 990,95 985,104 949,98 941,113 947,142 968,156 939,154 925,196 930,207 958,210 953,227 905,216 912,188 898,178 915,168 923,104" stroke="black" stroke-width="1" /></svg>